<svg width="28" height="11" viewBox="0 0 28 11" fill="none" xmlns="http://www.w3.org/2000/svg">
<path d="M14.3625 0.333333C10.7377 0.333333 7.45481 1.65333 4.92428 3.8L2.71682 1.64825C1.86254 0.815529 1.43539 0.399167 1.06954 0.373664C0.752005 0.35153 0.442902 0.481885 0.23711 0.724716C0 1.0045 0 1.601 0 2.79399V9.4C0 9.96005 0 10.2401 0.108993 10.454C0.204867 10.6422 0.357847 10.7951 0.546009 10.891C0.759921 11 1.03995 11 1.6 11H8.37705C9.60786 11 10.2233 11 10.5045 10.7579C10.7485 10.5479 10.8765 10.2333 10.8483 9.91263C10.8159 9.54295 10.3752 9.11339 9.49387 8.25426L7.35906 6.17333C9.26038 4.62667 11.6815 3.66667 14.3625 3.66667C18.635 3.66667 22.3431 6.06457 24.1431 9.5506C24.436 10.1178 24.5824 10.4014 24.7497 10.5347C24.9132 10.665 25.0543 10.7233 25.2621 10.7465C25.4747 10.7701 25.736 10.6863 26.2587 10.5186L26.4494 10.4574C26.9834 10.2861 27.2504 10.2005 27.4285 10.0088C27.5738 9.85228 27.6795 9.6074 27.6936 9.39428C27.7109 9.13321 27.6025 8.90638 27.3858 8.45273C25.0967 3.66113 20.1352 0.333333 14.3625 0.333333Z" fill="#FFFAE4"/>
</svg>
