<svg width="32" height="33" viewBox="0 0 32 33" fill="none" xmlns="http://www.w3.org/2000/svg">
<path fill-rule="evenodd" clip-rule="evenodd" d="M30.4166 10.4499C29.5421 10.4499 28.8332 9.74095 28.8332 8.86647V5.40602L24.431 9.80825C26.6697 13.095 26.3314 17.6114 23.4162 20.5266C20.1183 23.8245 14.7713 23.8245 11.4734 20.5266C8.17553 17.2287 8.17553 11.8818 11.4734 8.58389C14.3886 5.6687 18.9049 5.33041 22.1917 7.56901L26.5938 3.16687L23.1335 3.16687C22.259 3.16687 21.5501 2.45796 21.5501 1.58348C21.5501 0.708994 22.259 8.45026e-05 23.1335 8.44289e-05L30.4001 8.38163e-05C30.4056 2.79837e-05 30.4111 0 30.4166 0C31.2911 0 32 0.708909 32 1.58339V8.86647C32 9.74095 31.2911 10.4499 30.4166 10.4499ZM21.1769 18.2873C19.1157 20.3485 15.7739 20.3485 13.7127 18.2873C11.6515 16.2262 11.6515 12.8843 13.7127 10.8231C15.7739 8.76196 19.1157 8.76196 21.1769 10.8231C23.2381 12.8843 23.2381 16.2262 21.1769 18.2873Z" fill="#0083FF"/>
<path fill-rule="evenodd" clip-rule="evenodd" d="M9.5 9.12C6.56599 9.12 4.1875 11.4481 4.1875 14.32C4.1875 17.1919 6.56599 19.52 9.5 19.52C12.434 19.52 14.8125 17.1919 14.8125 14.32C14.8125 11.4481 12.434 9.12 9.5 9.12ZM1 14.32C1 9.72499 4.80558 6 9.5 6C14.1944 6 18 9.72499 18 14.32C18 18.3818 15.0264 21.7638 11.0938 22.494V25.24H13.75C14.6302 25.24 15.3438 25.9384 15.3438 26.8C15.3438 27.6616 14.6302 28.36 13.75 28.36H11.0938V30.44C11.0938 31.3016 10.3802 32 9.5 32C8.6198 32 7.90625 31.3016 7.90625 30.44V28.36H5.25C4.3698 28.36 3.65625 27.6616 3.65625 26.8C3.65625 25.9384 4.3698 25.24 5.25 25.24H7.90625V22.494C3.97363 21.7638 1 18.3818 1 14.32Z" fill="#C7473C" stroke="#FFFAE4" stroke-linecap="round"/>
</svg>
