<svg width="30" height="21" viewBox="0 0 30 21" fill="none" xmlns="http://www.w3.org/2000/svg">
<path d="M0 19.25C0 20.2165 0.783502 21 1.75 21H28.25C29.2165 21 30 20.2165 30 19.25C30 18.2835 29.2165 17.5 28.25 17.5H1.75C0.783502 17.5 0 18.2835 0 19.25ZM0 10.5C0 11.4665 0.783502 12.25 1.75 12.25H28.25C29.2165 12.25 30 11.4665 30 10.5C30 9.5335 29.2165 8.75 28.25 8.75H1.75C0.783502 8.75 0 9.5335 0 10.5ZM1.75 0C0.783502 0 0 0.783502 0 1.75C0 2.7165 0.783502 3.5 1.75 3.5H28.25C29.2165 3.5 30 2.7165 30 1.75C30 0.783502 29.2165 0 28.25 0H1.75Z" fill="#FFFAE4"/>
</svg>
