<svg width="32" height="33" viewBox="0 0 32 33" fill="none" xmlns="http://www.w3.org/2000/svg">
<path fill-rule="evenodd" clip-rule="evenodd" d="M8.5 10.12C5.56599 10.12 3.1875 12.4481 3.1875 15.32C3.1875 18.1919 5.56599 20.52 8.5 20.52C11.434 20.52 13.8125 18.1919 13.8125 15.32C13.8125 12.4481 11.434 10.12 8.5 10.12ZM0 15.32C0 10.725 3.80558 7 8.5 7C13.1944 7 17 10.725 17 15.32C17 19.3818 14.0264 22.7638 10.0938 23.494V26.24H12.75C13.6302 26.24 14.3438 26.9384 14.3438 27.8C14.3438 28.6616 13.6302 29.36 12.75 29.36H10.0938V31.44C10.0938 32.3016 9.3802 33 8.5 33C7.6198 33 6.90625 32.3016 6.90625 31.44V29.36H4.25C3.3698 29.36 2.65625 28.6616 2.65625 27.8C2.65625 26.9384 3.3698 26.24 4.25 26.24H6.90625V23.494C2.97363 22.7638 0 19.3818 0 15.32Z" fill="#C7473C"/>
<path fill-rule="evenodd" clip-rule="evenodd" d="M29.4166 11.4499C28.5421 11.4499 27.8332 10.741 27.8332 9.86647V6.40602L23.431 10.8082C25.6697 14.095 25.3314 18.6114 22.4162 21.5266C19.1183 24.8245 13.7713 24.8245 10.4734 21.5266C7.17553 18.2287 7.17553 12.8818 10.4734 9.58389C13.3886 6.6687 17.9049 6.33041 21.1917 8.56901L25.5938 4.16687L22.1335 4.16687C21.259 4.16687 20.5501 3.45796 20.5501 2.58348C20.5501 1.70899 21.259 1.00008 22.1335 1.00008L29.4001 1.00008C29.4056 1.00003 29.4111 1 29.4166 1C30.2911 1 31 1.70891 31 2.58339V9.86647C31 10.741 30.2911 11.4499 29.4166 11.4499ZM20.1769 19.2873C18.1157 21.3485 14.7739 21.3485 12.7127 19.2873C10.6515 17.2262 10.6515 13.8843 12.7127 11.8231C14.7739 9.76196 18.1157 9.76196 20.1769 11.8231C22.2381 13.8843 22.2381 17.2262 20.1769 19.2873Z" fill="#0083FF" stroke="#FFFAE4" stroke-linecap="round"/>
</svg>
