<svg width="160" height="160" viewBox="0 0 160 160" fill="none" xmlns="http://www.w3.org/2000/svg">
<circle cx="80" cy="80" r="80" fill="#C7473C"/>
<g opacity="0.4">
<path fill-rule="evenodd" clip-rule="evenodd" d="M80 155C121.421 155 155 121.421 155 80C155 38.5786 121.421 5 80 5C38.5786 5 5 38.5786 5 80C5 121.421 38.5786 155 80 155ZM79.5 143C114.018 143 142 115.018 142 80.5C142 45.9822 114.018 18 79.5 18C44.9822 18 17 45.9822 17 80.5C17 115.018 44.9822 143 79.5 143Z" fill="white"/>
</g>
<path d="M79.134 8.5C79.5189 7.83333 80.4811 7.83333 80.866 8.5L83.4641 13C83.849 13.6667 83.3679 14.5 82.5981 14.5H77.4019C76.6321 14.5 76.151 13.6667 76.5359 13L79.134 8.5Z" fill="white"/>
<path d="M80.866 151.5C80.4811 152.167 79.5189 152.167 79.134 151.5L76.5359 147C76.151 146.333 76.6321 145.5 77.4019 145.5L82.5981 145.5C83.3679 145.5 83.849 146.333 83.4641 147L80.866 151.5Z" fill="white"/>
<path d="M8.5 80.866C7.83333 80.4811 7.83333 79.5189 8.5 79.134L13 76.5359C13.6667 76.151 14.5 76.6321 14.5 77.4019L14.5 82.5981C14.5 83.3679 13.6667 83.849 13 83.4641L8.5 80.866Z" fill="white"/>
<path d="M151.5 79.134C152.167 79.5189 152.167 80.4811 151.5 80.866L147 83.4641C146.333 83.849 145.5 83.3679 145.5 82.5981L145.5 77.4019C145.5 76.6321 146.333 76.151 147 76.5359L151.5 79.134Z" fill="white"/>
</svg>
