<svg width="259" height="66" viewBox="0 0 259 66" fill="none" xmlns="http://www.w3.org/2000/svg">
<path d="M5.70348 37.0238C5.76958 37.7509 5.96789 38.3458 6.29839 38.6102C6.56278 38.6102 6.95934 38.6101 7.42203 38.6762C7.62033 38.6762 7.68644 38.8085 7.68644 38.9407C7.68644 39.0729 7.62033 39.205 7.42203 39.205C7.02544 39.205 6.49665 39.205 5.76957 39.1389C5.04248 39.1389 4.44759 39.0728 4.1171 39.0728C3.45611 39.0728 2.59686 39.0728 1.53928 39.1389H1.47316C1.27486 39.1389 1.20879 39.0728 1.20879 38.8745C1.20879 38.6762 1.53928 38.5441 2.20026 38.478C2.66295 38.0814 2.92733 37.2882 2.92733 36.1645V20.3008C2.92733 19.8382 2.72905 19.4416 2.39855 19.1772C1.73757 19.1111 1.34098 19.045 1.20879 18.9789C1.07659 18.9128 1.0105 18.8467 1.0105 18.7145C1.0105 18.5162 1.07657 18.4501 1.27487 18.4501C1.20877 18.4501 1.40709 18.5162 2.00198 18.5823C2.59686 18.6484 3.19173 18.7145 3.91881 18.7145C4.97639 18.7145 6.10009 18.5823 7.28987 18.384H7.35595C7.55424 18.384 7.62036 18.4501 7.62036 18.6484C7.62036 18.7806 7.55424 18.8467 7.35595 18.9128C7.22375 18.9789 6.69495 19.045 5.90177 19.1111C5.70347 19.3755 5.6374 20.0364 5.6374 21.1601V33.8511C5.7035 35.9001 5.70348 36.9577 5.70348 37.0238ZM5.24078 37.0238V21.2923C5.24078 20.3669 5.30687 19.706 5.43907 19.3094L4.97641 19.3755C4.71202 19.8381 4.51372 20.4992 4.51372 21.4245V36.6272C4.51372 37.6187 4.71201 38.3458 5.1747 38.6762H5.6374C5.37301 38.1475 5.24078 37.6187 5.24078 37.0238Z" fill="#4E2E15" stroke="white" stroke-width="0.6305"/>
<path d="M14.0319 22.0194C12.5778 20.3669 11.3219 19.5077 10.1982 19.3094C9.86773 19.4416 9.66944 19.5077 9.66944 19.5077C9.47114 19.5077 9.40503 19.4415 9.40503 19.2432C9.40503 18.9789 9.86774 18.7806 10.7931 18.6484C11.4541 18.5162 12.049 18.4501 12.5117 18.4501C13.371 18.4501 14.098 18.5162 14.6268 18.6484C14.6929 18.6484 14.759 18.7145 14.8251 18.7806L29.499 35.5035V27.7039C29.499 26.3819 29.4329 24.8616 29.3007 23.1431C29.2346 22.5482 29.1024 21.6228 28.9702 20.4331C28.7719 19.706 28.5075 19.2433 28.177 19.045C27.7805 19.045 27.3838 18.9789 26.9212 18.9789C26.7229 18.9128 26.6568 18.7806 26.6568 18.6484C26.6568 18.5162 26.7229 18.384 26.9212 18.384C26.789 18.384 27.1195 18.4501 27.8466 18.5162C28.6397 18.5823 29.4329 18.5823 30.0939 18.5823C30.3583 18.5823 30.6888 18.5162 31.1515 18.4501C31.6142 18.384 31.9447 18.384 32.209 18.384C32.4073 18.384 32.4735 18.4501 32.4735 18.6484C32.4735 18.9128 32.0108 19.045 31.1515 19.1111C30.6888 19.5077 30.4244 20.1026 30.3583 20.9618C30.2922 22.0194 30.2261 23.6719 30.0939 25.787C30.0278 26.3158 29.9617 26.7785 29.9617 27.0429V36.0984C30.0939 36.2306 30.3583 36.495 30.821 36.8255C31.2837 37.156 31.5481 37.3543 31.7464 37.3543H31.8125C31.9447 37.3543 32.0108 37.4865 32.0108 37.7509C32.0108 37.9491 31.9447 38.0153 31.7464 38.0153C31.2837 38.0153 30.4905 38.4119 29.3668 39.2712C29.3007 39.2712 29.2346 39.205 29.1024 39.0728C28.7059 38.6101 28.1109 38.0153 27.3839 37.156L14.4946 22.6143V32.1325C14.4946 32.8596 14.5607 33.7189 14.6268 34.8425C14.759 36.1645 14.8912 37.0238 15.0895 37.4204C15.2878 37.883 15.5522 38.2797 15.8166 38.478C16.081 38.478 16.4776 38.6101 17.0064 38.6762C17.1386 38.7423 17.2047 38.8085 17.2047 38.9407C17.2047 39.139 17.1386 39.205 16.9403 39.205C16.8742 39.205 16.6759 39.205 16.3454 39.1389C16.0149 39.0728 15.8166 39.0067 15.7505 39.0067C15.3539 38.9406 14.8251 38.9407 14.2303 38.9407C13.8998 38.9407 13.3709 39.0067 12.71 39.0728C12.049 39.1389 11.5863 39.205 11.388 39.205C11.1897 39.205 11.1236 39.139 11.1236 38.9407C11.1236 38.8085 11.1897 38.7423 11.3219 38.6762C11.4541 38.6101 11.9168 38.5441 12.7761 38.478C13.1727 38.1475 13.4371 37.4865 13.5693 36.6272C13.7015 35.834 13.8336 34.7764 13.8336 33.4544C13.8997 31.5376 13.9658 30.4139 13.9658 30.2817V30.2156V22.0194H14.0319ZM11.4541 19.045L11.0575 19.1111C12.049 19.4416 12.9744 20.1686 13.8998 21.2262C17.7335 25.6548 22.8892 31.4715 29.3668 38.6762L29.7634 38.3458L14.4285 20.9618C13.5693 19.9704 12.5778 19.3755 11.4541 19.045Z" fill="#4E2E15" stroke="white" stroke-width="0.6305"/>
<path d="M41.9915 39.1389C41.7271 39.1389 41.3305 39.1389 40.8678 39.1389C40.3391 39.1389 40.0086 39.1389 39.7442 39.1389C39.5459 39.1389 39.1493 39.1389 38.7527 39.1389C38.29 39.1389 37.9595 39.1389 37.7612 39.1389C36.968 39.1389 36.3731 39.4033 36.1087 39.9321C36.1087 40.0643 35.9766 40.1965 35.9105 40.3948C35.9105 40.4609 35.7782 40.4609 35.646 40.4609C35.5138 40.4609 35.4478 40.3948 35.4478 40.1965C35.4478 39.7999 35.646 39.4694 36.1748 39.1389C36.5714 38.8746 36.968 38.6763 37.4307 38.6102C37.6951 38.2797 37.8934 37.883 37.8934 37.4204V19.9042C37.8934 19.5737 37.8934 19.3094 37.8273 19.1111C36.9019 19.045 36.307 18.9789 36.1087 18.9128C35.9765 18.8467 35.9105 18.7806 35.9105 18.6484C35.9105 18.4501 35.9765 18.384 36.1748 18.384H36.2409C37.6951 18.5162 38.5544 18.5823 38.7527 18.5823C39.0171 18.5823 39.4798 18.5823 40.0747 18.5162C40.6695 18.4501 41.1322 18.4501 41.3966 18.4501C43.7101 18.4501 45.8913 19.045 47.8743 20.3008C49.8572 21.4906 51.2453 23.0109 51.9063 24.7295C52.4351 26.1175 52.7656 27.6378 52.7656 29.158C52.7656 30.1495 52.6334 31.2732 52.3029 32.3969C51.9724 33.7189 51.5097 34.7104 50.9148 35.3052C49.5268 36.7594 48.0065 37.817 46.354 38.478C45.0981 38.9407 43.644 39.1389 41.9915 39.1389ZM40.4051 38.6102V18.9789C40.2069 18.9789 39.9425 19.045 39.5459 19.045V38.6102H40.4051ZM40.8017 38.6102C41.3966 38.6102 41.8593 38.6102 42.1898 38.6102C43.2474 38.6102 44.1067 38.5441 44.7676 38.3458C45.9574 37.9492 47.015 37.3543 47.9404 36.3628C48.8658 35.4374 49.4607 34.3798 49.7912 33.1901C50.1877 31.6037 50.386 30.1495 50.386 28.8275C50.386 26.8446 49.7912 24.9278 48.6014 23.077C47.8743 21.8872 47.015 20.9618 46.1557 20.3669C45.2965 19.772 44.1067 19.3094 42.7186 19.1111C42.3881 19.045 42.0576 19.045 41.7271 19.045C41.5288 19.045 41.1983 19.045 40.8017 19.1111V38.6102Z" fill="#4E2E15" stroke="white" stroke-width="0.6305"/>
<path d="M65.06 39.7337C63.9364 39.7337 62.9449 39.6677 62.0856 39.4694C60.301 39.0728 58.7807 38.4118 57.3926 37.3542C55.9385 36.2305 54.8809 34.8425 54.3521 33.2561C53.8894 31.868 53.625 30.4799 53.625 29.158C53.625 26.514 54.5504 24.3328 56.4011 22.7464C58.1858 21.1601 60.4331 20.433 63.0771 20.433C64.0025 20.433 64.7957 20.5652 65.4567 20.7635C66.0516 21.0279 66.7125 21.3583 67.3074 21.8871C67.9023 22.4159 68.365 22.9447 68.6294 23.4735C68.6294 23.5396 68.6294 23.5396 68.6294 23.6057C68.6294 23.804 68.5633 23.8701 68.365 23.8701C68.2989 23.8701 68.2328 23.8701 68.1667 23.804C66.4481 22.0854 64.5974 21.2261 62.5483 21.2261C60.9619 21.2261 59.7061 21.4906 58.7807 22.0854C56.996 23.2091 56.0707 25.2581 56.0707 28.1665C56.0707 29.9511 56.5994 31.6697 57.657 33.3222C58.7146 34.9747 60.0365 36.2305 61.6229 37.0898C63.4737 38.1474 65.1262 38.6762 66.6464 38.6762C67.2413 38.6762 67.704 38.6101 68.2328 38.4118C69.026 38.1474 69.6869 37.883 70.2157 37.4203C72.2648 35.8339 73.2563 33.6527 73.2563 30.9426C73.2563 27.7699 72.3309 25.0599 70.4141 22.8786C68.4311 20.6312 65.8532 19.4415 62.6805 19.4415C62.2178 19.4415 61.689 19.5076 60.9619 19.5737C60.1026 19.7059 59.5739 19.8381 59.3095 19.9703C58.7807 20.2347 58.1858 20.7635 57.4587 21.4245C57.3926 21.4906 57.3265 21.4905 57.2604 21.4905C57.0621 21.4905 56.996 21.4244 56.996 21.2261C56.996 21.16 56.996 21.0939 57.0621 21.0278C57.1943 20.8956 57.4587 20.6313 57.9214 20.3008C59.9044 18.7144 62.35 17.9212 65.06 17.9212C67.9684 17.9212 70.5462 19.0449 72.7936 21.2261C73.058 21.4905 73.3885 21.8872 73.7851 22.4159C75.107 24.3328 75.768 26.3818 75.768 28.5631C75.768 29.819 75.5697 31.0087 75.107 32.1985C74.3139 34.4459 72.9919 36.2305 71.2733 37.5525C69.4226 39.0728 67.3735 39.7337 65.06 39.7337ZM55.7402 28.1665C55.7402 25.7208 56.335 23.8701 57.5909 22.5481C57.4587 22.6142 57.3265 22.6803 57.3265 22.7464C55.8723 24.1345 55.1453 25.9852 55.1453 28.2987C55.1453 29.2241 55.3436 30.4799 55.7402 31.9341C55.8063 32.2646 56.0706 32.7273 56.335 33.2561C57.5909 35.3051 59.3095 36.8915 61.4907 38.0813C62.6805 38.7423 63.8703 39.0728 65.1923 39.0728C65.3905 39.0728 65.5888 39.0728 65.721 39.0728C63.0771 38.7423 60.7636 37.4864 58.7807 35.4373C56.7316 33.19 55.7402 30.8104 55.7402 28.1665ZM63.4076 18.7144C62.8127 18.7144 62.0856 18.8466 61.2263 19.1771C61.689 19.111 62.2178 19.0449 62.6805 19.0449C64.994 19.0449 67.1752 19.772 69.0921 21.1601C72.1326 23.4074 73.719 26.6462 73.719 30.8104C73.719 32.7934 73.2563 34.512 72.2648 36.0322C73.6529 34.5781 74.3139 32.6612 74.3139 30.2816C74.3139 29.2902 74.1817 28.2326 73.9173 27.175C73.3224 24.5972 71.8682 22.5481 69.5547 20.8956C67.4396 19.4415 65.3905 18.7144 63.4076 18.7144Z" fill="#CC6929" stroke="white" stroke-width="0.6305"/>
<path d="M80.1306 22.0194C78.6764 20.3669 77.4205 19.5077 76.2969 19.3094C75.9664 19.4416 75.7681 19.5077 75.7681 19.5077C75.5698 19.5077 75.5037 19.4415 75.5037 19.2432C75.5037 18.9789 75.9664 18.7806 76.8918 18.6484C77.5527 18.5162 78.1476 18.4501 78.6103 18.4501C79.4696 18.4501 80.1967 18.5162 80.7255 18.6484C80.7916 18.6484 80.8577 18.7145 80.9238 18.7806L95.5977 35.5035V27.7039C95.5977 26.3819 95.5316 24.8616 95.3994 23.1431C95.3333 22.5482 95.2672 21.6228 95.0689 20.4331C94.8706 19.706 94.6062 19.2433 94.2757 19.045C93.8791 19.045 93.4825 18.9789 93.0198 18.9789C92.8876 18.9128 92.7554 18.7806 92.7554 18.6484C92.7554 18.5162 92.8215 18.384 93.0198 18.384C92.8876 18.384 93.2181 18.4501 93.9452 18.5162C94.7384 18.5823 95.5316 18.5823 96.1926 18.5823C96.4569 18.5823 96.7874 18.5162 97.2501 18.4501C97.7128 18.384 98.0433 18.384 98.3077 18.384C98.506 18.384 98.5721 18.4501 98.5721 18.6484C98.5721 18.9128 98.1094 19.045 97.2501 19.1111C96.7874 19.5077 96.523 20.1026 96.4569 20.9618C96.3908 22.0194 96.3248 23.6719 96.1926 25.787C96.1265 26.3158 96.1264 26.7785 96.1264 27.0429V36.0984C96.2586 36.2306 96.523 36.495 96.9857 36.8255C97.4484 37.156 97.7128 37.3543 97.9111 37.3543H97.9772C98.1094 37.3543 98.1755 37.4865 98.1755 37.7509C98.1755 37.9491 98.1094 38.0153 97.9111 38.0153C97.4484 38.0153 96.6552 38.4119 95.5316 39.2712C95.4655 39.2712 95.3994 39.205 95.2672 39.0728C94.8706 38.6101 94.2757 38.0153 93.5486 37.156L80.6594 22.6143V32.1325C80.6594 32.8596 80.7255 33.7189 80.8577 34.8425C80.9899 36.1645 81.1221 37.0238 81.3204 37.4204C81.5187 37.883 81.783 38.2797 82.0474 38.478C82.3118 38.478 82.7084 38.6101 83.2372 38.6762C83.3694 38.7423 83.4355 38.8085 83.4355 38.9407C83.4355 39.139 83.3694 39.205 83.1711 39.205C83.105 39.205 82.9067 39.205 82.5762 39.1389C82.2457 39.0728 82.0475 39.0067 81.9814 39.0067C81.5848 38.9406 81.0559 38.9407 80.4611 38.9407C80.1306 38.9407 79.6018 39.0067 78.9408 39.0728C78.2798 39.1389 77.8171 39.205 77.6188 39.205C77.4205 39.205 77.3545 39.139 77.3545 38.9407C77.3545 38.8085 77.4205 38.7423 77.5527 38.6762C77.6849 38.6101 78.1476 38.5441 79.0069 38.478C79.4035 38.1475 79.6679 37.4865 79.8001 36.6272C79.9323 35.834 80.0645 34.7764 80.0645 33.4544C80.1306 31.5376 80.1967 30.4139 80.1967 30.2817V30.2156V22.0194H80.1306ZM77.5527 19.045L77.1561 19.1111C78.1476 19.4416 79.073 20.1686 79.9984 21.2262C83.8321 25.6548 88.9878 31.4715 95.4654 38.6762L95.8621 38.3458L80.5272 20.9618C79.734 19.9704 78.6764 19.3755 77.5527 19.045Z" fill="#4E2E15" stroke="white" stroke-width="0.6305"/>
<path d="M113.18 40.7253C112.981 40.7253 112.915 40.6592 112.915 40.4609C112.915 40.3287 113.114 39.9982 113.444 39.4694C113.378 39.3372 113.18 39.2711 112.915 39.2711H104.521C104.124 39.2711 103.595 39.2711 102.868 39.2711C102.141 39.2711 101.546 39.2711 101.216 39.2711C101.018 39.2711 100.951 39.205 100.951 39.0067C100.951 38.8745 101.018 38.7423 101.216 38.7423C101.282 38.7423 101.546 38.7423 102.207 38.7423C102.67 38.2796 102.868 37.6187 102.868 36.6272V20.6974C102.868 20.0364 102.604 19.5737 102.141 19.3754C101.943 19.3754 101.745 19.3754 101.612 19.3754C101.348 19.3093 101.216 19.2433 101.216 19.1111C101.216 18.9128 101.282 18.8467 101.48 18.8467C102.075 18.8467 102.934 18.8466 104.058 18.9127C105.182 18.9788 106.041 18.9789 106.636 18.9789C107.099 18.9789 107.76 18.9789 108.619 18.9789C109.478 18.9789 110.139 18.9789 110.602 18.9789C112.188 18.9789 112.915 18.8466 112.915 18.5822V18.5162C112.915 18.3179 112.981 18.1857 113.18 18.1857C113.246 18.1857 113.378 18.2518 113.444 18.3179C113.708 18.7145 114.039 19.2433 114.502 19.9703C114.766 20.3008 115.097 20.8296 115.625 21.4906C115.691 21.5567 115.691 21.6228 115.691 21.6889C115.691 21.8872 115.625 21.9533 115.427 21.9533C115.361 21.9533 115.295 21.9533 115.229 21.8872C114.898 21.5567 114.634 21.3584 114.436 21.2262C112.783 20.1025 110.404 19.5076 107.231 19.5076C107.032 19.5076 106.768 19.5076 106.438 19.5076C106.041 19.5076 105.777 19.5076 105.644 19.5076V27.9022C107.099 27.9022 108.421 27.9022 109.61 27.9022C110.932 27.9022 111.99 27.6378 112.849 27.109C113.312 26.448 113.576 26.1175 113.708 26.1175C113.907 26.1175 113.973 26.1836 113.973 26.3819C113.973 26.448 113.114 27.6378 111.395 29.8851C111.329 29.9512 111.263 29.9512 111.197 29.9512C110.998 29.9512 110.932 29.8851 110.932 29.6868C110.932 29.6207 111.131 29.2902 111.593 28.6954C111.263 28.4971 110.271 28.3649 108.619 28.3649C107.627 28.3649 106.636 28.3649 105.711 28.3649V38.7423C106.702 38.7423 107.231 38.7423 107.297 38.7423C108.817 38.7423 110.205 38.6101 111.593 38.3457C113.51 37.9492 114.766 37.4204 115.427 36.6933C115.493 36.5611 115.625 36.4289 115.691 36.2967C115.824 36.1645 115.89 36.0323 116.022 36.0323C116.22 36.0323 116.286 36.0984 116.286 36.2967C116.286 36.3628 116.154 36.6272 115.824 36.9577C115.03 37.9492 114.303 39.0728 113.576 40.4609C113.378 40.6592 113.246 40.7253 113.18 40.7253ZM104.917 19.3754C104.587 19.772 104.389 20.4991 104.389 21.5567V27.836H105.116V19.4416H104.917V19.3754ZM104.389 28.3649V37.2221C104.389 37.883 104.521 38.3457 104.851 38.6762H105.116V28.2987H104.389V28.3649Z" fill="#4E2E15" stroke="white" stroke-width="0.6305"/>
<path d="M127.589 23.2091C127.391 23.2091 127.325 23.143 127.325 22.9447C127.325 22.8125 127.523 22.6142 127.986 22.2176C128.052 21.9532 128.052 21.6888 128.052 21.4244C128.052 20.433 127.655 19.7059 126.796 19.1771C126.135 18.7805 125.54 18.5822 124.945 18.5822C124.483 18.5822 124.02 18.7144 123.557 19.0449C123.095 19.3093 122.764 19.7059 122.5 20.1685C122.235 20.6312 122.103 21.2261 122.103 21.9532C122.103 23.4735 122.566 24.6633 123.557 25.4564C124.813 26.514 125.871 27.4394 126.664 28.2326C127.06 28.6292 127.655 29.158 128.449 30.0173C129.572 31.5375 130.167 32.8595 130.167 34.1153C130.167 35.3051 129.771 36.4949 128.911 37.6186C127.788 39.1389 126.201 39.8659 124.218 39.8659C123.623 39.8659 123.028 39.7998 122.566 39.6016C121.706 39.2711 120.847 38.6761 120.054 37.883C119.261 37.0237 118.666 36.1644 118.335 35.3051C118.071 35.3712 117.873 35.4373 117.608 35.4373C117.41 35.4373 117.344 35.3712 117.344 35.1729C117.344 34.9746 117.476 34.9085 117.674 34.9085C118.137 34.9085 118.732 34.5781 119.459 33.851C120.186 33.1239 120.781 32.7934 121.112 32.7934C121.31 32.7934 121.376 32.9256 121.376 33.0578C121.376 33.19 121.31 33.2561 121.178 33.3222C121.046 33.3883 120.781 33.5205 120.451 33.6527C120.252 33.9832 120.186 34.3137 120.186 34.6442C120.186 35.1068 120.318 35.6356 120.649 36.2305C121.707 38.1474 122.896 39.1389 124.218 39.1389C125.276 39.1389 126.135 38.8083 126.73 38.0813C127.259 37.4203 127.589 36.561 127.589 35.4373C127.589 34.3136 127.259 33.3222 126.664 32.4629C126.201 31.868 125.474 31.1409 124.417 30.3477C121.244 27.9682 119.657 25.6547 119.657 23.4735C119.657 22.6142 119.922 21.7549 120.385 20.8956C120.847 20.0363 121.442 19.3753 122.169 18.9127C123.028 18.3839 124.02 18.1195 125.144 18.1195C126.135 18.1195 127.06 18.3178 127.721 18.7144C128.184 18.9788 128.647 19.3753 129.11 19.9041C129.506 20.3668 129.771 20.6312 129.969 20.6312C130.167 20.4329 130.299 20.3668 130.432 20.3668C130.564 20.3668 130.696 20.4329 130.696 20.6312C130.696 20.6973 130.63 20.7634 130.63 20.8295C130.432 20.9617 130.101 21.16 129.771 21.4905C128.911 22.1515 128.25 22.6803 127.854 23.0769C127.721 23.143 127.655 23.2091 127.589 23.2091ZM120.385 22.6142C120.385 22.4159 120.385 22.2176 120.385 22.0193C120.252 22.482 120.186 22.9447 120.186 23.4074C120.186 25.3904 121.706 27.5716 124.681 29.8189C125.805 30.6782 126.598 31.4714 127.127 32.1324C127.788 33.0578 128.118 34.1814 128.118 35.3712C128.118 36.2966 127.92 37.1559 127.589 37.8169C127.854 37.5525 128.118 37.0237 128.316 36.3627C128.515 35.7678 128.581 35.239 128.581 34.7763C128.581 34.1153 128.382 33.3222 127.92 32.4629C127.457 31.6036 126.994 30.8765 126.466 30.4138C126.201 30.2155 125.871 29.9511 125.408 29.5546C124.35 28.6953 123.359 27.7699 122.301 26.8445C121.046 25.7208 120.385 24.2667 120.385 22.6142Z" fill="#4E2E15" stroke="white" stroke-width="0.6305"/>
<path d="M138.033 37.0238C138.099 37.7509 138.297 38.3458 138.628 38.6102C138.892 38.6102 139.289 38.6101 139.751 38.6762C139.95 38.6762 140.016 38.8085 140.016 38.9407C140.016 39.0729 139.95 39.205 139.751 39.205C139.355 39.205 138.826 39.205 138.099 39.1389C137.372 39.1389 136.777 39.0728 136.446 39.0728C135.785 39.0728 134.926 39.0728 133.869 39.1389H133.803C133.604 39.1389 133.538 39.0728 133.538 38.8745C133.538 38.6762 133.869 38.5441 134.53 38.478C134.992 38.0814 135.257 37.2882 135.257 36.1645V20.3008C135.257 19.8382 135.058 19.4416 134.728 19.1772C134.067 19.1111 133.67 19.045 133.538 18.9789C133.406 18.9128 133.34 18.8467 133.34 18.7145C133.34 18.5162 133.406 18.4501 133.604 18.4501C133.538 18.4501 133.736 18.5162 134.331 18.5823C134.926 18.6484 135.521 18.7145 136.248 18.7145C137.306 18.7145 138.429 18.5823 139.619 18.384H139.685C139.884 18.384 139.95 18.4501 139.95 18.6484C139.95 18.7806 139.884 18.8467 139.685 18.9128C139.553 18.9789 139.024 19.045 138.231 19.1111C138.033 19.3755 137.967 20.0364 137.967 21.1601V33.8511C138.033 35.9001 138.033 36.9577 138.033 37.0238ZM137.57 37.0238V21.2923C137.57 20.3669 137.636 19.706 137.768 19.3094L137.306 19.3755C137.041 19.8381 136.843 20.4992 136.843 21.4245V36.6272C136.843 37.6187 137.041 38.3458 137.504 38.6762H137.967C137.702 38.1475 137.57 37.6187 137.57 37.0238Z" fill="#4E2E15" stroke="white" stroke-width="0.6305"/>
<path d="M164.935 38.8745C164.605 38.8745 164.076 38.9405 163.415 39.0727C162.754 39.2049 162.225 39.2711 161.961 39.2711C161.762 39.2711 161.696 39.205 161.696 39.0067C161.696 38.8745 161.762 38.8083 161.894 38.7423C162.027 38.6762 162.423 38.6101 163.018 38.544C163.084 38.4779 163.15 38.4118 163.15 38.2796C163.15 38.0813 163.018 37.7508 162.82 37.3542C162.291 36.4288 161.101 34.1815 159.052 30.6121H149.468C148.278 32.7273 147.551 34.0492 147.353 34.4458C146.361 36.4288 145.899 37.7508 145.899 38.544V38.6762C146.163 38.6762 146.493 38.7423 146.956 38.8745C147.088 38.8745 147.154 39.0067 147.154 39.1389C147.154 39.3372 147.088 39.4032 146.89 39.4032H146.824C145.238 39.271 144.378 39.1389 144.312 39.1389C144.048 39.1389 143.255 39.205 142.065 39.3372H141.999C141.8 39.3372 141.734 39.271 141.734 39.0727C141.734 38.9405 141.8 38.8745 141.999 38.8084C142.197 38.7423 142.66 38.6762 143.519 38.6101C144.511 37.8169 145.37 36.8254 146.097 35.5034L153.632 22.0193C153.632 21.9532 153.764 21.7549 153.897 21.2922L153.698 20.9618C153.037 19.7059 152.244 19.111 151.319 19.111C151.253 19.111 151.054 19.1771 150.856 19.2432C150.658 19.3093 150.459 19.3754 150.393 19.3754C150.195 19.3754 150.129 19.3093 150.129 19.111C150.129 18.9127 150.459 18.7144 151.12 18.5822C151.583 18.5161 152.046 18.45 152.442 18.45C154.029 18.45 155.351 18.9127 156.54 19.8381C156.607 19.9042 156.673 19.9703 156.673 20.0364L165.596 36.8254C165.993 37.5525 166.389 38.1474 166.852 38.6101C167.116 38.6762 167.315 38.7423 167.579 38.8084C167.645 38.9406 167.711 39.0067 167.711 39.1389C167.711 39.2711 167.645 39.3372 167.447 39.3372C167.182 39.3372 166.786 39.2711 166.191 39.1389C165.662 38.8745 165.266 38.8745 164.935 38.8745ZM154.425 22.0193C153.434 23.6718 151.914 26.2496 149.931 29.6868H158.656L154.425 22.0193ZM152.442 18.8466C153.037 19.1771 153.632 19.7059 154.095 20.5651C154.425 21.0939 154.822 21.9532 155.417 23.0769C156.144 24.3989 157.4 26.5801 159.118 29.6868H159.911L155.483 21.5566C155.02 20.6973 154.624 20.1025 154.293 19.772C153.764 19.1771 153.169 18.8466 152.442 18.8466ZM160.374 30.4138H159.581C160.374 31.868 161.63 34.0493 163.216 36.9576C163.547 37.5525 163.679 38.0152 163.547 38.3457C163.877 38.3457 164.208 38.2796 164.538 38.2796C164.406 37.8169 164.01 36.9576 163.349 35.7678L160.374 30.4138Z" fill="#4E2E15" stroke="white" stroke-width="0.6305"/>
<path d="M207.965 8.60141C207.502 8.7997 207.04 8.99799 206.577 9.19629C205.652 9.59288 205.057 10.0556 204.792 10.6505C203.603 12.8317 202.149 15.8723 200.562 19.8382C198.976 23.738 197.522 26.9768 196.067 29.4885C195.671 30.2817 194.812 31.3393 193.49 32.7935C191.969 34.512 190.647 35.7018 189.524 36.3628C187.673 37.5526 185.624 38.1475 183.377 38.1475C180.204 38.1475 177.428 37.0238 175.18 34.7104C172.933 32.3969 171.743 29.6869 171.743 26.6463C171.743 23.8041 172.669 21.028 174.519 18.3179C176.634 15.2113 179.278 13.5588 182.451 13.2283L184.17 13.4266C183.641 13.691 182.782 14.0876 181.658 14.5503C179.411 15.1452 177.494 16.8637 175.907 19.706C174.519 22.2177 173.792 24.5972 173.792 26.8446C173.792 29.2242 174.585 31.3393 176.172 33.1901C177.89 35.1731 179.939 36.1645 182.451 36.1645C185.227 36.1645 187.937 34.9087 190.581 32.3308C193.159 29.8852 195.142 26.8446 196.596 23.2092C197.125 21.8872 197.654 20.6314 198.116 19.4416C199.306 16.5333 200.364 13.5588 202.347 10.1878C202.347 10.1217 202.215 10.1217 202.148 10.1217C201.752 10.1217 199.769 10.5183 196.332 11.3115C192.564 12.1707 190.647 12.7656 190.647 13.0961C190.647 13.3605 191.044 13.8893 191.705 14.6164V15.0791C190.647 14.6164 189.854 14.0215 189.193 13.2944C188.664 12.5673 188.334 11.9063 188.334 11.3115C188.334 11.1793 188.466 10.8488 188.466 10.5844C191.441 10.0556 195.473 9.19629 200.496 8.20481C201.421 8.07261 202.743 7.74212 204.462 7.27943C204.594 7.21334 204.859 7.01504 205.255 6.61845C205.586 6.28795 205.784 6.08967 205.982 6.08967C206.313 6.08967 206.775 6.28795 207.304 6.81674C207.899 7.27943 208.23 7.60993 208.23 7.94042C208.23 8.13872 208.163 8.40311 207.965 8.60141ZM211.204 37.6187C212.46 37.6187 213.65 37.156 214.707 36.2967C214.839 36.2306 215.5 35.4374 216.889 33.8511C216.822 34.6443 217.153 35.4375 217.946 36.2967C218.673 37.156 219.466 37.6187 220.326 37.6848C220.854 37.6848 222.044 37.0899 223.763 35.834C225.614 34.446 226.737 33.1901 227.134 32.1325C227.2 31.9342 227.134 31.8681 227.002 31.802C223.432 34.5781 221.185 35.9662 220.458 35.9001C219.599 35.7679 219.268 35.1069 219.334 33.785C219.466 32.0664 220.061 29.8851 220.92 27.3073C221.449 25.8531 221.978 24.399 222.507 22.9448C222.639 22.4821 221.912 21.6228 221.119 21.755C220.524 21.8872 219.995 23.2753 219.532 24.399C219.466 24.4651 219.466 24.4651 219.334 24.4651C219.202 24.3329 218.938 24.2668 218.475 24.0685C218.012 23.8702 217.682 23.8041 217.616 23.8041C215.765 23.8041 213.782 25.2582 211.601 28.1666C209.552 30.8766 208.56 32.9257 208.56 34.5121C208.56 35.2391 208.758 35.9001 209.221 36.5611C209.75 37.2882 210.411 37.6187 211.204 37.6187ZM218.871 25.9853C218.21 28.2327 216.888 30.414 215.038 32.6613C213.253 34.7765 211.997 35.7679 211.138 35.5696C211.072 35.4374 211.006 35.2392 211.006 34.9748C211.006 33.5206 211.799 31.7359 213.385 29.4225C215.104 26.9768 216.624 25.721 218.078 25.721C218.343 25.721 218.541 25.787 218.871 25.9853ZM256.812 42.7083C256.812 41.4524 253.639 40.3287 247.36 39.5355C242.799 38.9407 239.164 38.6102 236.586 38.6102C235.462 38.6102 234.272 38.6763 232.884 38.8085C233.347 37.2882 233.678 35.9662 234.008 34.9086C235 32.0003 235.727 29.8852 236.189 28.7615C236.321 28.2988 236.916 27.0429 237.974 24.9939C238.701 23.4736 239.164 22.2177 239.23 21.2262C239.362 20.1025 239.032 19.8382 237.842 19.5738C237.049 19.4416 236.255 20.7635 235.33 23.4736C234.735 25.5887 234.074 27.6378 233.413 29.6869C233.083 30.4801 232.356 31.4054 231.298 32.3969C230.24 33.3884 229.513 33.9172 228.985 33.8511C228.786 33.7189 228.72 33.5867 228.72 33.4545C228.588 32.7274 228.588 32.0664 228.852 31.4054C229.579 29.1581 230.108 27.3073 230.505 25.9853C230.174 25.3904 229.712 25.06 229.249 25.1261C228.72 25.1261 228.125 26.1836 227.398 28.2327C226.803 30.0835 226.473 31.4715 226.473 32.463C226.473 33.124 226.671 33.8511 227.002 34.7104C227.464 35.7679 228.059 36.3628 228.786 36.4289C229.447 36.495 230.042 36.2967 230.505 35.9001C230.637 35.7679 231.034 35.4374 231.629 34.7104L230.439 39.0728C226.076 39.7338 221.449 41.1219 216.624 43.1049C213.914 44.2286 211.535 45.9471 209.552 48.2606C207.37 50.7062 206.313 53.1518 206.313 55.5975C206.313 55.7958 206.379 56.3246 206.379 57.0517C206.445 57.8449 206.511 58.2414 206.577 58.3736C206.643 58.5719 206.643 58.7703 206.709 58.9685C206.841 59.4312 206.908 59.7617 207.106 60.0261C208.296 63.1327 210.807 64.7852 214.443 64.9835C216.294 65.1157 218.343 64.4547 220.656 63.0667C223.697 61.282 226.208 58.1753 228.191 53.7467C229.315 51.1689 230.703 46.9386 232.356 40.9236C234.603 40.5931 236.388 40.4609 237.776 40.4609C239.693 40.4609 241.147 40.527 242.072 40.6592C246.302 41.188 249.409 41.7829 251.26 42.4439C251.392 42.51 252.053 42.7083 253.441 43.3032C254.102 43.5676 254.631 43.6997 254.961 43.6997C255.292 43.6997 255.622 43.6337 256.019 43.5015C256.548 43.3693 256.812 43.1049 256.812 42.7083ZM229.778 41.3863C227.729 48.9215 225.812 54.1433 224.027 56.9856C221.582 60.8193 218.21 62.8022 213.98 62.8683C211.667 62.9344 210.08 62.0091 209.089 60.1583C208.362 58.9024 208.097 57.1839 208.23 55.1348C208.296 54.4078 208.428 53.6807 208.758 53.0197C209.948 50.4418 212.46 47.9301 216.161 45.6827C217.682 44.7573 219.731 43.8981 222.375 43.1049C224.358 42.51 226.142 42.0473 227.663 41.7168C228.324 41.5846 229.051 41.4524 229.778 41.3863ZM242.403 37.6187C243.658 37.6187 244.848 37.156 245.906 36.2967C246.038 36.2306 246.699 35.4374 248.087 33.8511C248.021 34.6443 248.351 35.4375 249.145 36.2967C249.872 37.156 250.665 37.6187 251.524 37.6848C252.053 37.6848 253.243 37.0899 254.961 35.834C256.812 34.446 257.936 33.1901 258.332 32.1325C258.398 31.9342 258.332 31.8681 258.2 31.802C254.631 34.5781 252.383 35.9662 251.656 35.9001C250.797 35.7679 250.467 35.1069 250.533 33.785C250.665 32.0664 251.26 29.8851 252.185 27.3073C252.714 25.8531 253.243 24.399 253.772 22.9448C253.904 22.4821 253.177 21.6228 252.383 21.755C251.789 21.8872 251.26 23.2753 250.797 24.399C250.731 24.4651 250.731 24.4651 250.599 24.4651C250.467 24.3329 250.202 24.2668 249.739 24.0685C249.277 23.8702 248.946 23.8041 248.88 23.8041C247.029 23.8041 245.047 25.2582 242.865 28.1666C240.816 30.8766 239.891 32.9257 239.891 34.5121C239.891 35.2391 240.089 35.9001 240.552 36.5611C240.948 37.2882 241.609 37.6187 242.403 37.6187ZM250.136 25.9853C249.475 28.2327 248.219 30.414 246.302 32.6613C244.518 34.7765 243.262 35.7679 242.403 35.5696C242.336 35.4374 242.27 35.2392 242.27 34.9748C242.27 33.5206 243.064 31.7359 244.65 29.4225C246.368 26.9768 247.889 25.721 249.343 25.721C249.541 25.721 249.74 25.787 250.136 25.9853ZM212.923 44.4929C211.27 44.2946 209.023 44.493 206.379 42.5761C204.528 40.7253 202.876 38.1475 201.818 36.0323C200.232 32.7935 199.438 29.5546 199.438 26.1836V22.0855C200.166 21.755 201.157 21.2923 202.479 20.6314L211.931 14.352C215.699 11.6419 218.673 8.86579 220.788 5.82526L221.912 6.35406C222.375 6.61845 222.639 6.94894 222.639 7.27943C222.639 7.74212 222.243 8.46921 221.449 9.32849C218.938 12.1707 215.831 14.8808 212.063 17.5247C210.873 18.3179 207.503 20.4992 201.884 24.0685C201.752 24.4651 201.686 24.9278 201.686 25.6548C201.686 26.5802 201.818 27.6378 202.016 28.8276C202.016 29.6207 202.215 30.8766 202.677 32.5291C203.074 33.9833 203.404 34.9747 203.603 35.3713C205.255 38.5441 207.106 40.9236 209.089 42.51C210.279 43.3693 211.535 44.0302 212.923 44.4929Z" fill="url(#paint0_linear_825_2844)" stroke="white" stroke-width="0.6305"/>
<path d="M11.4541 9.26233C11.4541 7.94035 11.388 7.80816 10.727 7.60986C10.5948 7.60986 10.3304 7.54376 10.1982 7.54376C10.1321 7.54376 10.066 7.54375 10.066 7.47765C10.066 7.41156 10.1321 7.34547 10.3304 7.34547C11.0575 7.34547 12.049 7.41157 12.1151 7.41157C12.1812 7.41157 13.1727 7.34547 13.7015 7.34547C13.8997 7.34547 13.9659 7.34546 13.9659 7.47765C13.9659 7.54375 13.8998 7.54376 13.8337 7.54376C13.7015 7.54376 13.6354 7.54376 13.4371 7.60986C12.9744 7.67596 12.9083 7.94035 12.8422 8.53524C12.8422 9.06402 12.8422 9.52672 12.8422 10.1877V11.9724C12.8422 12.6995 12.8422 12.6994 12.6439 12.8316C11.5863 13.3604 10.1983 13.5587 9.27288 13.5587C8.0831 13.5587 5.76965 13.4265 3.98499 11.8402C2.99351 10.9809 2.06812 9.26233 2.06812 7.27937C2.06812 4.70152 3.32399 2.91686 4.71206 1.99148C6.16623 1.0661 7.75261 1 8.94239 1C9.93387 1 11.0575 1.19829 11.388 1.26439C11.7185 1.33049 12.3134 1.3966 12.71 1.4627C12.8422 1.4627 12.9083 1.52878 12.9083 1.59488C12.9083 1.79318 12.7761 2.25587 12.7761 3.84223C12.7761 4.10663 12.7761 4.17272 12.6439 4.17272C12.5778 4.17272 12.5778 4.10663 12.5117 3.90833C12.5117 3.71004 12.4456 3.24734 12.1812 2.85075C11.7846 2.25587 10.4626 1.52878 8.41356 1.52878C7.42209 1.52878 6.23234 1.59488 4.97647 2.58636C4.05109 3.31345 3.39009 4.76762 3.39009 6.68448C3.39009 8.93184 4.51375 10.5843 5.10863 11.1131C6.36451 12.369 7.81871 12.8316 9.27288 12.8316C9.86777 12.8316 10.6609 12.7655 11.1236 12.5012C11.3219 12.369 11.4541 12.2368 11.4541 11.9063V9.26233Z" fill="#CC6929" stroke="white" stroke-width="0.6305" stroke-miterlimit="10"/>
<path d="M19.4521 3.31339C19.6504 2.8507 19.7165 2.78461 19.7826 2.78461C19.9148 2.78461 19.9809 2.98289 20.1131 3.31339C20.3775 3.90828 22.6249 9.52666 23.4842 11.5757C24.013 12.7655 24.4096 12.9638 24.674 13.096C24.8722 13.1621 25.0705 13.1621 25.2027 13.1621C25.2688 13.1621 25.401 13.2282 25.401 13.2943C25.401 13.3604 25.2688 13.4265 25.0705 13.4265C24.8722 13.4265 23.8147 13.4265 22.8232 13.3604C22.5588 13.3604 22.2944 13.3604 22.2944 13.2943C22.2944 13.2282 22.3605 13.2282 22.3605 13.2282C22.4266 13.2282 22.5588 13.096 22.4927 12.8316L21.2368 9.72496C21.2368 9.65886 21.1707 9.65886 21.1046 9.65886H17.9319C17.8658 9.65886 17.7997 9.65884 17.7997 9.79104L17.0065 11.9723C16.8743 12.3028 16.8082 12.6333 16.8082 12.8977C16.8082 13.1621 17.0726 13.2943 17.2709 13.2943H17.4031C17.5353 13.2943 17.5353 13.3604 17.5353 13.4265C17.5353 13.4926 17.4692 13.5587 17.337 13.5587C17.0065 13.5587 16.2133 13.4926 16.0811 13.4926C15.9489 13.4926 15.2218 13.5587 14.627 13.5587C14.4287 13.5587 14.3625 13.4926 14.3625 13.4265C14.3625 13.3604 14.4287 13.2943 14.4948 13.2943C14.627 13.2943 14.8253 13.2943 14.8914 13.2943C15.5524 13.2282 15.8167 12.7655 16.0811 12.0384L19.4521 3.31339ZM20.9724 8.99787C21.0385 8.99787 21.0385 8.93177 21.0385 8.93177L19.6504 5.23024C19.5843 5.03195 19.5183 5.03195 19.3861 5.23024L18.0641 8.93177C18.0641 8.99787 18.0641 8.99787 18.1302 8.99787H20.9724Z" fill="#CC6929" stroke="white" stroke-width="0.6305" stroke-miterlimit="10"/>
<path d="M28.5738 9.46062C28.5738 11.4436 28.5738 12.3029 28.8382 12.5012C29.0365 12.6995 29.6314 12.8317 30.689 12.8317C31.416 12.8317 32.077 12.8317 32.4075 12.4351C32.6058 12.2368 32.6719 11.9063 32.738 11.6419C32.738 11.5758 32.8041 11.4436 32.8702 11.4436C32.9363 11.4436 32.9363 11.5097 32.9363 11.6419C32.9363 11.7741 32.8702 12.6334 32.738 13.03C32.6719 13.3605 32.6058 13.4265 31.8126 13.4265C30.8212 13.4265 30.028 13.4266 29.367 13.3605C28.706 13.3605 28.2433 13.3605 27.8467 13.3605C27.7806 13.3605 27.5162 13.3605 27.2518 13.3605C26.9874 13.3605 26.657 13.4265 26.4587 13.4265C26.3265 13.4265 26.2603 13.3605 26.2603 13.2944C26.2603 13.2283 26.2603 13.1622 26.3925 13.1622C26.5247 13.1622 26.723 13.1621 26.8552 13.096C27.1196 13.0299 27.1857 12.7656 27.2518 12.369C27.3179 11.8402 27.3179 10.7165 27.3179 9.39454V7.01499C27.3179 4.89983 27.3179 4.50325 27.3179 4.10665C27.3179 3.64396 27.1857 3.44566 26.723 3.37957C26.5908 3.37957 26.3925 3.31346 26.2603 3.31346C26.1942 3.31346 26.1282 3.24736 26.1282 3.18126C26.1282 3.11516 26.1943 3.04907 26.3265 3.04907C26.9874 3.04907 27.8467 3.11517 27.9128 3.11517C27.9789 3.11517 29.0365 3.04907 29.4331 3.04907C29.5653 3.04907 29.6314 3.11516 29.6314 3.18126C29.6314 3.24736 29.5653 3.31346 29.4992 3.31346C29.4331 3.31346 29.1687 3.31346 29.0365 3.31346C28.6399 3.37956 28.5077 3.57787 28.5077 4.10665C28.5077 4.56934 28.5077 4.89983 28.5077 7.01499V9.46062H28.5738Z" fill="#CC6929" stroke="white" stroke-width="0.6305" stroke-miterlimit="10"/>
<path d="M35.8445 7.01499C35.8445 4.89983 35.8445 4.50325 35.7784 4.10666C35.7123 3.64397 35.6462 3.44567 35.1835 3.37957C35.0513 3.37957 34.853 3.31346 34.7208 3.31346C34.6547 3.31346 34.5886 3.24736 34.5886 3.18126C34.5886 3.11516 34.6547 3.04907 34.7869 3.04907C35.4479 3.04907 36.3072 3.11518 36.4394 3.11518C36.5055 3.11518 39.4799 3.11518 39.8104 3.11518C40.0748 3.11518 40.3392 3.04907 40.4714 3.04907C40.5375 3.04907 40.6036 2.98297 40.6697 2.98297C40.7358 2.98297 40.7358 3.04908 40.7358 3.11518C40.7358 3.18128 40.6697 3.37957 40.6036 3.77616C40.6036 3.90836 40.5375 4.50324 40.5375 4.70154C40.5375 4.76764 40.4714 4.83372 40.4053 4.83372C40.3392 4.83372 40.2731 4.76763 40.2731 4.63544C40.2731 4.56934 40.2731 4.30494 40.207 4.17274C40.1409 3.97444 39.9426 3.84226 39.2155 3.77616C38.9511 3.77616 37.3647 3.71006 37.1664 3.71006C37.1003 3.71006 37.1004 3.77615 37.1004 3.84224V7.54377C37.1004 7.60987 37.1003 7.67598 37.1664 7.67598C37.3647 7.67598 39.2155 7.67598 39.546 7.67598C39.8765 7.60988 40.0748 7.60987 40.207 7.47767C40.2731 7.41157 40.3392 7.27938 40.4053 7.27938C40.4714 7.27938 40.4714 7.27939 40.4714 7.41159C40.4714 7.47768 40.4053 7.74206 40.3392 8.13865C40.2731 8.40305 40.2731 8.93185 40.2731 8.99795C40.2731 9.13015 40.207 9.26234 40.1409 9.26234C40.0748 9.26234 40.0748 9.19623 40.0748 9.13013C40.0748 8.99794 40.0748 8.86575 40.0087 8.66745C39.9426 8.46916 39.8104 8.33696 39.2816 8.27086C38.885 8.20476 37.3647 8.20476 37.1664 8.20476C37.1003 8.20476 37.1004 8.27086 37.1004 8.27086V9.39454C37.1004 9.85723 37.1004 11.4436 37.1004 11.708C37.1665 12.6334 37.3648 12.7656 38.7528 12.7656C39.1494 12.7656 39.8104 12.7656 40.1409 12.6334C40.5375 12.5012 40.6697 12.2368 40.8019 11.708C40.8019 11.5758 40.868 11.5097 40.9341 11.5097C41.0002 11.5097 41.0002 11.6419 41.0002 11.708C41.0002 11.7741 40.868 12.6995 40.8019 13.03C40.7358 13.3605 40.5375 13.3605 40.0087 13.3605C38.9511 13.3605 38.1579 13.3605 37.5631 13.2944C36.9682 13.2944 36.5716 13.2944 36.3733 13.2944C36.3733 13.2944 36.0428 13.2944 35.7784 13.2944C35.514 13.2944 35.1835 13.3605 34.9852 13.3605C34.853 13.3605 34.7869 13.2944 34.7869 13.2283C34.7869 13.1622 34.7869 13.096 34.9191 13.096C35.0513 13.096 35.2496 13.03 35.3818 13.03C35.6462 12.9639 35.7123 12.6995 35.7784 12.3029C35.8445 11.7741 35.8445 10.6504 35.8445 9.32844V7.01499Z" fill="#CC6929" stroke="white" stroke-width="0.6305" stroke-miterlimit="10"/>
<path d="M44.6356 7.01499C44.6356 4.89983 44.6356 4.50325 44.6356 4.10665C44.6356 3.64396 44.5034 3.44566 44.0407 3.37957C43.9085 3.37957 43.7102 3.31346 43.578 3.31346C43.5119 3.31346 43.4458 3.24736 43.4458 3.18126C43.4458 3.11516 43.5119 3.04907 43.6441 3.04907C44.3051 3.04907 45.2305 3.11517 45.2966 3.11517C45.4288 3.11517 46.6185 3.04907 47.0812 3.04907C48.0066 3.04907 48.9981 3.11517 49.7252 3.64396C50.0557 3.90835 50.7166 4.56933 50.7166 5.49471C50.7166 6.48619 50.3201 7.47767 48.9981 8.60135C50.1218 10.0555 51.1133 11.2453 51.9065 12.1046C52.6335 12.8978 53.0962 13.03 53.4928 13.03C53.7572 13.0961 53.8894 13.096 53.9555 13.096C54.0216 13.096 54.0877 13.1622 54.0877 13.2283C54.0877 13.2944 54.0216 13.3605 53.7572 13.3605H52.8979C52.1047 13.3605 51.7742 13.2943 51.3776 13.096C50.7827 12.7656 50.254 12.1046 49.4608 11.1131C48.8659 10.386 48.271 9.52672 47.9405 9.13013C47.8744 9.06403 47.8744 9.06405 47.7422 9.06405H45.9576C45.8915 9.06405 45.8915 9.06404 45.8915 9.19623V9.52673C45.8915 10.8487 45.8915 11.9063 45.9576 12.4351C46.0237 12.8317 46.0898 13.0961 46.4864 13.1621C46.6847 13.1621 46.949 13.2283 47.0812 13.2283C47.1473 13.2283 47.2134 13.2944 47.2134 13.3605C47.2134 13.4266 47.1473 13.4926 47.0151 13.4926C46.222 13.4926 45.3627 13.4265 45.2966 13.4265C45.2966 13.4265 44.3051 13.4926 43.9085 13.4926C43.7763 13.4926 43.7102 13.4266 43.7102 13.3605C43.7102 13.2944 43.7102 13.2283 43.8424 13.2283C43.9746 13.2283 44.1729 13.2282 44.3051 13.1621C44.5695 13.0961 44.6356 12.8317 44.7017 12.4351C44.7678 11.9063 44.7678 10.7826 44.7678 9.46062V7.01499H44.6356ZM45.8915 8.13865C45.8915 8.20475 45.9576 8.27086 45.9576 8.33696C46.1559 8.46916 46.883 8.53525 47.4778 8.53525C47.8083 8.53525 48.2049 8.53525 48.5354 8.27086C48.9981 7.94036 49.3947 7.21328 49.3947 6.2218C49.3947 4.50323 48.4693 3.57785 46.9491 3.57785C46.5525 3.57785 46.0898 3.64396 45.9576 3.64396C45.8915 3.64396 45.8254 3.71006 45.8254 3.77616V8.13865H45.8915Z" fill="#CC6929" stroke="white" stroke-width="0.6305" stroke-miterlimit="10"/>
<path d="M56.6655 9.39454C56.6655 10.7165 56.6656 11.7741 56.7317 12.369C56.7978 12.7656 56.7978 13.0299 57.2604 13.096C57.4587 13.096 57.7892 13.1622 57.9214 13.1622C57.9875 13.1622 58.0536 13.2283 58.0536 13.2944C58.0536 13.3605 57.9875 13.4265 57.8553 13.4265C57.0622 13.4265 56.1368 13.3605 56.0707 13.3605C56.0046 13.3605 55.0792 13.4265 54.6826 13.4265C54.5504 13.4265 54.4843 13.3605 54.4843 13.2944C54.4843 13.2283 54.4843 13.1622 54.6165 13.1622C54.7487 13.1622 54.947 13.1621 55.0792 13.096C55.3436 13.0299 55.4097 12.7656 55.4758 12.369C55.5419 11.8402 55.5419 10.7165 55.5419 9.39454V7.01499C55.5419 4.89983 55.5419 4.50325 55.4758 4.10665C55.4758 3.64396 55.3436 3.44566 55.0131 3.37957C54.8809 3.37957 54.6826 3.31346 54.5504 3.31346C54.4843 3.31346 54.4182 3.24736 54.4182 3.18126C54.4182 3.11516 54.4843 3.04907 54.6165 3.04907C55.0792 3.04907 55.9385 3.11517 56.0707 3.11517C56.1368 3.11517 57.0621 3.04907 57.4587 3.04907C57.5909 3.04907 57.657 3.11516 57.657 3.18126C57.657 3.24736 57.591 3.31346 57.5249 3.31346C57.4588 3.31346 57.3266 3.31347 57.1944 3.37957C56.7978 3.44566 56.7317 3.64396 56.7317 4.10665C56.7317 4.56934 56.7317 4.89983 56.7317 7.01499V9.39454H56.6655Z" fill="#CC6929" stroke="white" stroke-width="0.6305" stroke-miterlimit="10"/>
<path d="M5.70348 37.0238C5.76958 37.7509 5.96789 38.3458 6.29839 38.6102C6.56278 38.6102 6.95934 38.6101 7.42203 38.6762C7.62033 38.6762 7.68644 38.8085 7.68644 38.9407C7.68644 39.0729 7.62033 39.205 7.42203 39.205C7.02544 39.205 6.49665 39.205 5.76957 39.1389C5.04248 39.1389 4.44759 39.0728 4.1171 39.0728C3.45611 39.0728 2.59686 39.0728 1.53928 39.1389H1.47316C1.27486 39.1389 1.20879 39.0728 1.20879 38.8745C1.20879 38.6762 1.53928 38.5441 2.20026 38.478C2.66295 38.0814 2.92733 37.2882 2.92733 36.1645V20.3008C2.92733 19.8382 2.72905 19.4416 2.39855 19.1772C1.73757 19.1111 1.34098 19.045 1.20879 18.9789C1.07659 18.9128 1.0105 18.8467 1.0105 18.7145C1.0105 18.5162 1.07657 18.4501 1.27487 18.4501C1.20877 18.4501 1.40709 18.5162 2.00198 18.5823C2.59686 18.6484 3.19173 18.7145 3.91881 18.7145C4.97639 18.7145 6.10009 18.5823 7.28987 18.384H7.35595C7.55424 18.384 7.62036 18.4501 7.62036 18.6484C7.62036 18.7806 7.55424 18.8467 7.35595 18.9128C7.22375 18.9789 6.69495 19.045 5.90177 19.1111C5.70347 19.3755 5.6374 20.0364 5.6374 21.1601V33.8511C5.7035 35.9001 5.70348 36.9577 5.70348 37.0238ZM5.24078 37.0238V21.2923C5.24078 20.3669 5.30687 19.706 5.43907 19.3094L4.97641 19.3755C4.71202 19.8381 4.51372 20.4992 4.51372 21.4245V36.6272C4.51372 37.6187 4.71201 38.3458 5.1747 38.6762H5.6374C5.37301 38.1475 5.24078 37.6187 5.24078 37.0238Z" fill="#4E2E15"/>
<path d="M14.0319 22.0194C12.5778 20.3669 11.3219 19.5077 10.1982 19.3094C9.86773 19.4416 9.66944 19.5077 9.66944 19.5077C9.47114 19.5077 9.40503 19.4415 9.40503 19.2432C9.40503 18.9789 9.86774 18.7806 10.7931 18.6484C11.4541 18.5162 12.049 18.4501 12.5117 18.4501C13.371 18.4501 14.098 18.5162 14.6268 18.6484C14.6929 18.6484 14.759 18.7145 14.8251 18.7806L29.499 35.5035V27.7039C29.499 26.3819 29.4329 24.8616 29.3007 23.1431C29.2346 22.5482 29.1024 21.6228 28.9702 20.4331C28.7719 19.706 28.5075 19.2433 28.177 19.045C27.7805 19.045 27.3838 18.9789 26.9212 18.9789C26.7229 18.9128 26.6568 18.7806 26.6568 18.6484C26.6568 18.5162 26.7229 18.384 26.9212 18.384C26.789 18.384 27.1195 18.4501 27.8466 18.5162C28.6397 18.5823 29.4329 18.5823 30.0939 18.5823C30.3583 18.5823 30.6888 18.5162 31.1515 18.4501C31.6142 18.384 31.9447 18.384 32.209 18.384C32.4073 18.384 32.4735 18.4501 32.4735 18.6484C32.4735 18.9128 32.0108 19.045 31.1515 19.1111C30.6888 19.5077 30.4244 20.1026 30.3583 20.9618C30.2922 22.0194 30.2261 23.6719 30.0939 25.787C30.0278 26.3158 29.9617 26.7785 29.9617 27.0429V36.0984C30.0939 36.2306 30.3583 36.495 30.821 36.8255C31.2837 37.156 31.5481 37.3543 31.7464 37.3543H31.8125C31.9447 37.3543 32.0108 37.4865 32.0108 37.7509C32.0108 37.9491 31.9447 38.0153 31.7464 38.0153C31.2837 38.0153 30.4905 38.4119 29.3668 39.2712C29.3007 39.2712 29.2346 39.205 29.1024 39.0728C28.7059 38.6101 28.1109 38.0153 27.3839 37.156L14.4946 22.6143V32.1325C14.4946 32.8596 14.5607 33.7189 14.6268 34.8425C14.759 36.1645 14.8912 37.0238 15.0895 37.4204C15.2878 37.883 15.5522 38.2797 15.8166 38.478C16.081 38.478 16.4776 38.6101 17.0064 38.6762C17.1386 38.7423 17.2047 38.8085 17.2047 38.9407C17.2047 39.139 17.1386 39.205 16.9403 39.205C16.8742 39.205 16.6759 39.205 16.3454 39.1389C16.0149 39.0728 15.8166 39.0067 15.7505 39.0067C15.3539 38.9406 14.8251 38.9407 14.2303 38.9407C13.8998 38.9407 13.3709 39.0067 12.71 39.0728C12.049 39.1389 11.5863 39.205 11.388 39.205C11.1897 39.205 11.1236 39.139 11.1236 38.9407C11.1236 38.8085 11.1897 38.7423 11.3219 38.6762C11.4541 38.6101 11.9168 38.5441 12.7761 38.478C13.1727 38.1475 13.4371 37.4865 13.5693 36.6272C13.7015 35.834 13.8336 34.7764 13.8336 33.4544C13.8997 31.5376 13.9658 30.4139 13.9658 30.2817V30.2156V22.0194H14.0319ZM11.4541 19.045L11.0575 19.1111C12.049 19.4416 12.9744 20.1686 13.8998 21.2262C17.7335 25.6548 22.8892 31.4715 29.3668 38.6762L29.7634 38.3458L14.4285 20.9618C13.5693 19.9704 12.5778 19.3755 11.4541 19.045Z" fill="#4E2E15"/>
<path d="M41.9915 39.1389C41.7271 39.1389 41.3305 39.1389 40.8678 39.1389C40.3391 39.1389 40.0086 39.1389 39.7442 39.1389C39.5459 39.1389 39.1493 39.1389 38.7527 39.1389C38.29 39.1389 37.9595 39.1389 37.7612 39.1389C36.968 39.1389 36.3731 39.4033 36.1087 39.9321C36.1087 40.0643 35.9766 40.1965 35.9105 40.3948C35.9105 40.4609 35.7782 40.4609 35.646 40.4609C35.5138 40.4609 35.4478 40.3948 35.4478 40.1965C35.4478 39.7999 35.646 39.4694 36.1748 39.1389C36.5714 38.8746 36.968 38.6763 37.4307 38.6102C37.6951 38.2797 37.8934 37.883 37.8934 37.4204V19.9042C37.8934 19.5737 37.8934 19.3094 37.8273 19.1111C36.9019 19.045 36.307 18.9789 36.1087 18.9128C35.9765 18.8467 35.9105 18.7806 35.9105 18.6484C35.9105 18.4501 35.9765 18.384 36.1748 18.384H36.2409C37.6951 18.5162 38.5544 18.5823 38.7527 18.5823C39.0171 18.5823 39.4798 18.5823 40.0747 18.5162C40.6695 18.4501 41.1322 18.4501 41.3966 18.4501C43.7101 18.4501 45.8913 19.045 47.8743 20.3008C49.8572 21.4906 51.2453 23.0109 51.9063 24.7295C52.4351 26.1175 52.7656 27.6378 52.7656 29.158C52.7656 30.1495 52.6334 31.2732 52.3029 32.3969C51.9724 33.7189 51.5097 34.7104 50.9148 35.3052C49.5268 36.7594 48.0065 37.817 46.354 38.478C45.0981 38.9407 43.644 39.1389 41.9915 39.1389ZM40.4051 38.6102V18.9789C40.2069 18.9789 39.9425 19.045 39.5459 19.045V38.6102H40.4051ZM40.8017 38.6102C41.3966 38.6102 41.8593 38.6102 42.1898 38.6102C43.2474 38.6102 44.1067 38.5441 44.7676 38.3458C45.9574 37.9492 47.015 37.3543 47.9404 36.3628C48.8658 35.4374 49.4607 34.3798 49.7912 33.1901C50.1877 31.6037 50.386 30.1495 50.386 28.8275C50.386 26.8446 49.7912 24.9278 48.6014 23.077C47.8743 21.8872 47.015 20.9618 46.1557 20.3669C45.2965 19.772 44.1067 19.3094 42.7186 19.1111C42.3881 19.045 42.0576 19.045 41.7271 19.045C41.5288 19.045 41.1983 19.045 40.8017 19.1111V38.6102Z" fill="#4E2E15"/>
<path d="M65.06 39.7337C63.9364 39.7337 62.9449 39.6677 62.0856 39.4694C60.301 39.0728 58.7807 38.4118 57.3926 37.3542C55.9385 36.2305 54.8809 34.8425 54.3521 33.2561C53.8894 31.868 53.625 30.4799 53.625 29.158C53.625 26.514 54.5504 24.3328 56.4011 22.7464C58.1858 21.1601 60.4331 20.433 63.0771 20.433C64.0025 20.433 64.7957 20.5652 65.4567 20.7635C66.0516 21.0279 66.7125 21.3583 67.3074 21.8871C67.9023 22.4159 68.365 22.9447 68.6294 23.4735C68.6294 23.5396 68.6294 23.5396 68.6294 23.6057C68.6294 23.804 68.5633 23.8701 68.365 23.8701C68.2989 23.8701 68.2328 23.8701 68.1667 23.804C66.4481 22.0854 64.5974 21.2261 62.5483 21.2261C60.9619 21.2261 59.7061 21.4906 58.7807 22.0854C56.996 23.2091 56.0707 25.2581 56.0707 28.1665C56.0707 29.9511 56.5994 31.6697 57.657 33.3222C58.7146 34.9747 60.0365 36.2305 61.6229 37.0898C63.4737 38.1474 65.1262 38.6762 66.6464 38.6762C67.2413 38.6762 67.704 38.6101 68.2328 38.4118C69.026 38.1474 69.6869 37.883 70.2157 37.4203C72.2648 35.8339 73.2563 33.6527 73.2563 30.9426C73.2563 27.7699 72.3309 25.0599 70.4141 22.8786C68.4311 20.6312 65.8532 19.4415 62.6805 19.4415C62.2178 19.4415 61.689 19.5076 60.9619 19.5737C60.1026 19.7059 59.5739 19.8381 59.3095 19.9703C58.7807 20.2347 58.1858 20.7635 57.4587 21.4245C57.3926 21.4906 57.3265 21.4905 57.2604 21.4905C57.0621 21.4905 56.996 21.4244 56.996 21.2261C56.996 21.16 56.996 21.0939 57.0621 21.0278C57.1943 20.8956 57.4587 20.6313 57.9214 20.3008C59.9044 18.7144 62.35 17.9212 65.06 17.9212C67.9684 17.9212 70.5462 19.0449 72.7936 21.2261C73.058 21.4905 73.3885 21.8872 73.7851 22.4159C75.107 24.3328 75.768 26.3818 75.768 28.5631C75.768 29.819 75.5697 31.0087 75.107 32.1985C74.3139 34.4459 72.9919 36.2305 71.2733 37.5525C69.4226 39.0728 67.3735 39.7337 65.06 39.7337ZM55.7402 28.1665C55.7402 25.7208 56.335 23.8701 57.5909 22.5481C57.4587 22.6142 57.3265 22.6803 57.3265 22.7464C55.8723 24.1345 55.1453 25.9852 55.1453 28.2987C55.1453 29.2241 55.3436 30.4799 55.7402 31.9341C55.8063 32.2646 56.0706 32.7273 56.335 33.2561C57.5909 35.3051 59.3095 36.8915 61.4907 38.0813C62.6805 38.7423 63.8703 39.0728 65.1923 39.0728C65.3905 39.0728 65.5888 39.0728 65.721 39.0728C63.0771 38.7423 60.7636 37.4864 58.7807 35.4373C56.7316 33.19 55.7402 30.8104 55.7402 28.1665ZM63.4076 18.7144C62.8127 18.7144 62.0856 18.8466 61.2263 19.1771C61.689 19.111 62.2178 19.0449 62.6805 19.0449C64.994 19.0449 67.1752 19.772 69.0921 21.1601C72.1326 23.4074 73.719 26.6462 73.719 30.8104C73.719 32.7934 73.2563 34.512 72.2648 36.0322C73.6529 34.5781 74.3139 32.6612 74.3139 30.2816C74.3139 29.2902 74.1817 28.2326 73.9173 27.175C73.3224 24.5972 71.8682 22.5481 69.5547 20.8956C67.4396 19.4415 65.3905 18.7144 63.4076 18.7144Z" fill="#CC6929"/>
<path d="M80.1306 22.0194C78.6764 20.3669 77.4205 19.5077 76.2969 19.3094C75.9664 19.4416 75.7681 19.5077 75.7681 19.5077C75.5698 19.5077 75.5037 19.4415 75.5037 19.2432C75.5037 18.9789 75.9664 18.7806 76.8918 18.6484C77.5527 18.5162 78.1476 18.4501 78.6103 18.4501C79.4696 18.4501 80.1967 18.5162 80.7255 18.6484C80.7916 18.6484 80.8577 18.7145 80.9238 18.7806L95.5977 35.5035V27.7039C95.5977 26.3819 95.5316 24.8616 95.3994 23.1431C95.3333 22.5482 95.2672 21.6228 95.0689 20.4331C94.8706 19.706 94.6062 19.2433 94.2757 19.045C93.8791 19.045 93.4825 18.9789 93.0198 18.9789C92.8876 18.9128 92.7554 18.7806 92.7554 18.6484C92.7554 18.5162 92.8215 18.384 93.0198 18.384C92.8876 18.384 93.2181 18.4501 93.9452 18.5162C94.7384 18.5823 95.5316 18.5823 96.1926 18.5823C96.4569 18.5823 96.7874 18.5162 97.2501 18.4501C97.7128 18.384 98.0433 18.384 98.3077 18.384C98.506 18.384 98.5721 18.4501 98.5721 18.6484C98.5721 18.9128 98.1094 19.045 97.2501 19.1111C96.7874 19.5077 96.523 20.1026 96.4569 20.9618C96.3908 22.0194 96.3248 23.6719 96.1926 25.787C96.1265 26.3158 96.1264 26.7785 96.1264 27.0429V36.0984C96.2586 36.2306 96.523 36.495 96.9857 36.8255C97.4484 37.156 97.7128 37.3543 97.9111 37.3543H97.9772C98.1094 37.3543 98.1755 37.4865 98.1755 37.7509C98.1755 37.9491 98.1094 38.0153 97.9111 38.0153C97.4484 38.0153 96.6552 38.4119 95.5316 39.2712C95.4655 39.2712 95.3994 39.205 95.2672 39.0728C94.8706 38.6101 94.2757 38.0153 93.5486 37.156L80.6594 22.6143V32.1325C80.6594 32.8596 80.7255 33.7189 80.8577 34.8425C80.9899 36.1645 81.1221 37.0238 81.3204 37.4204C81.5187 37.883 81.783 38.2797 82.0474 38.478C82.3118 38.478 82.7084 38.6101 83.2372 38.6762C83.3694 38.7423 83.4355 38.8085 83.4355 38.9407C83.4355 39.139 83.3694 39.205 83.1711 39.205C83.105 39.205 82.9067 39.205 82.5762 39.1389C82.2457 39.0728 82.0475 39.0067 81.9814 39.0067C81.5848 38.9406 81.0559 38.9407 80.4611 38.9407C80.1306 38.9407 79.6018 39.0067 78.9408 39.0728C78.2798 39.1389 77.8171 39.205 77.6188 39.205C77.4205 39.205 77.3545 39.139 77.3545 38.9407C77.3545 38.8085 77.4205 38.7423 77.5527 38.6762C77.6849 38.6101 78.1476 38.5441 79.0069 38.478C79.4035 38.1475 79.6679 37.4865 79.8001 36.6272C79.9323 35.834 80.0645 34.7764 80.0645 33.4544C80.1306 31.5376 80.1967 30.4139 80.1967 30.2817V30.2156V22.0194H80.1306ZM77.5527 19.045L77.1561 19.1111C78.1476 19.4416 79.073 20.1686 79.9984 21.2262C83.8321 25.6548 88.9878 31.4715 95.4654 38.6762L95.8621 38.3458L80.5272 20.9618C79.734 19.9704 78.6764 19.3755 77.5527 19.045Z" fill="#4E2E15"/>
<path d="M113.18 40.7253C112.981 40.7253 112.915 40.6592 112.915 40.4609C112.915 40.3287 113.114 39.9982 113.444 39.4694C113.378 39.3372 113.18 39.2711 112.915 39.2711H104.521C104.124 39.2711 103.595 39.2711 102.868 39.2711C102.141 39.2711 101.546 39.2711 101.216 39.2711C101.018 39.2711 100.951 39.205 100.951 39.0067C100.951 38.8745 101.018 38.7423 101.216 38.7423C101.282 38.7423 101.546 38.7423 102.207 38.7423C102.67 38.2796 102.868 37.6187 102.868 36.6272V20.6974C102.868 20.0364 102.604 19.5737 102.141 19.3754C101.943 19.3754 101.745 19.3754 101.612 19.3754C101.348 19.3093 101.216 19.2433 101.216 19.1111C101.216 18.9128 101.282 18.8467 101.48 18.8467C102.075 18.8467 102.934 18.8466 104.058 18.9127C105.182 18.9788 106.041 18.9789 106.636 18.9789C107.099 18.9789 107.76 18.9789 108.619 18.9789C109.478 18.9789 110.139 18.9789 110.602 18.9789C112.188 18.9789 112.915 18.8466 112.915 18.5822V18.5162C112.915 18.3179 112.981 18.1857 113.18 18.1857C113.246 18.1857 113.378 18.2518 113.444 18.3179C113.708 18.7145 114.039 19.2433 114.502 19.9703C114.766 20.3008 115.097 20.8296 115.625 21.4906C115.691 21.5567 115.691 21.6228 115.691 21.6889C115.691 21.8872 115.625 21.9533 115.427 21.9533C115.361 21.9533 115.295 21.9533 115.229 21.8872C114.898 21.5567 114.634 21.3584 114.436 21.2262C112.783 20.1025 110.404 19.5076 107.231 19.5076C107.032 19.5076 106.768 19.5076 106.438 19.5076C106.041 19.5076 105.777 19.5076 105.644 19.5076V27.9022C107.099 27.9022 108.421 27.9022 109.61 27.9022C110.932 27.9022 111.99 27.6378 112.849 27.109C113.312 26.448 113.576 26.1175 113.708 26.1175C113.907 26.1175 113.973 26.1836 113.973 26.3819C113.973 26.448 113.114 27.6378 111.395 29.8851C111.329 29.9512 111.263 29.9512 111.197 29.9512C110.998 29.9512 110.932 29.8851 110.932 29.6868C110.932 29.6207 111.131 29.2902 111.593 28.6954C111.263 28.4971 110.271 28.3649 108.619 28.3649C107.627 28.3649 106.636 28.3649 105.711 28.3649V38.7423C106.702 38.7423 107.231 38.7423 107.297 38.7423C108.817 38.7423 110.205 38.6101 111.593 38.3457C113.51 37.9492 114.766 37.4204 115.427 36.6933C115.493 36.5611 115.625 36.4289 115.691 36.2967C115.824 36.1645 115.89 36.0323 116.022 36.0323C116.22 36.0323 116.286 36.0984 116.286 36.2967C116.286 36.3628 116.154 36.6272 115.824 36.9577C115.03 37.9492 114.303 39.0728 113.576 40.4609C113.378 40.6592 113.246 40.7253 113.18 40.7253ZM104.917 19.3754C104.587 19.772 104.389 20.4991 104.389 21.5567V27.836H105.116V19.4416H104.917V19.3754ZM104.389 28.3649V37.2221C104.389 37.883 104.521 38.3457 104.851 38.6762H105.116V28.2987H104.389V28.3649Z" fill="#4E2E15"/>
<path d="M127.589 23.2091C127.391 23.2091 127.325 23.143 127.325 22.9447C127.325 22.8125 127.523 22.6142 127.986 22.2176C128.052 21.9532 128.052 21.6888 128.052 21.4244C128.052 20.433 127.655 19.7059 126.796 19.1771C126.135 18.7805 125.54 18.5822 124.945 18.5822C124.483 18.5822 124.02 18.7144 123.557 19.0449C123.095 19.3093 122.764 19.7059 122.5 20.1685C122.235 20.6312 122.103 21.2261 122.103 21.9532C122.103 23.4735 122.566 24.6633 123.557 25.4564C124.813 26.514 125.871 27.4394 126.664 28.2326C127.06 28.6292 127.655 29.158 128.449 30.0173C129.572 31.5375 130.167 32.8595 130.167 34.1153C130.167 35.3051 129.771 36.4949 128.911 37.6186C127.788 39.1389 126.201 39.8659 124.218 39.8659C123.623 39.8659 123.028 39.7998 122.566 39.6016C121.706 39.2711 120.847 38.6761 120.054 37.883C119.261 37.0237 118.666 36.1644 118.335 35.3051C118.071 35.3712 117.873 35.4373 117.608 35.4373C117.41 35.4373 117.344 35.3712 117.344 35.1729C117.344 34.9746 117.476 34.9085 117.674 34.9085C118.137 34.9085 118.732 34.5781 119.459 33.851C120.186 33.1239 120.781 32.7934 121.112 32.7934C121.31 32.7934 121.376 32.9256 121.376 33.0578C121.376 33.19 121.31 33.2561 121.178 33.3222C121.046 33.3883 120.781 33.5205 120.451 33.6527C120.252 33.9832 120.186 34.3137 120.186 34.6442C120.186 35.1068 120.318 35.6356 120.649 36.2305C121.707 38.1474 122.896 39.1389 124.218 39.1389C125.276 39.1389 126.135 38.8083 126.73 38.0813C127.259 37.4203 127.589 36.561 127.589 35.4373C127.589 34.3136 127.259 33.3222 126.664 32.4629C126.201 31.868 125.474 31.1409 124.417 30.3477C121.244 27.9682 119.657 25.6547 119.657 23.4735C119.657 22.6142 119.922 21.7549 120.385 20.8956C120.847 20.0363 121.442 19.3753 122.169 18.9127C123.028 18.3839 124.02 18.1195 125.144 18.1195C126.135 18.1195 127.06 18.3178 127.721 18.7144C128.184 18.9788 128.647 19.3753 129.11 19.9041C129.506 20.3668 129.771 20.6312 129.969 20.6312C130.167 20.4329 130.299 20.3668 130.432 20.3668C130.564 20.3668 130.696 20.4329 130.696 20.6312C130.696 20.6973 130.63 20.7634 130.63 20.8295C130.432 20.9617 130.101 21.16 129.771 21.4905C128.911 22.1515 128.25 22.6803 127.854 23.0769C127.721 23.143 127.655 23.2091 127.589 23.2091ZM120.385 22.6142C120.385 22.4159 120.385 22.2176 120.385 22.0193C120.252 22.482 120.186 22.9447 120.186 23.4074C120.186 25.3904 121.706 27.5716 124.681 29.8189C125.805 30.6782 126.598 31.4714 127.127 32.1324C127.788 33.0578 128.118 34.1814 128.118 35.3712C128.118 36.2966 127.92 37.1559 127.589 37.8169C127.854 37.5525 128.118 37.0237 128.316 36.3627C128.515 35.7678 128.581 35.239 128.581 34.7763C128.581 34.1153 128.382 33.3222 127.92 32.4629C127.457 31.6036 126.994 30.8765 126.466 30.4138C126.201 30.2155 125.871 29.9511 125.408 29.5546C124.35 28.6953 123.359 27.7699 122.301 26.8445C121.046 25.7208 120.385 24.2667 120.385 22.6142Z" fill="#4E2E15"/>
<path d="M138.033 37.0238C138.099 37.7509 138.297 38.3458 138.628 38.6102C138.892 38.6102 139.289 38.6101 139.751 38.6762C139.95 38.6762 140.016 38.8085 140.016 38.9407C140.016 39.0729 139.95 39.205 139.751 39.205C139.355 39.205 138.826 39.205 138.099 39.1389C137.372 39.1389 136.777 39.0728 136.446 39.0728C135.785 39.0728 134.926 39.0728 133.869 39.1389H133.803C133.604 39.1389 133.538 39.0728 133.538 38.8745C133.538 38.6762 133.869 38.5441 134.53 38.478C134.992 38.0814 135.257 37.2882 135.257 36.1645V20.3008C135.257 19.8382 135.058 19.4416 134.728 19.1772C134.067 19.1111 133.67 19.045 133.538 18.9789C133.406 18.9128 133.34 18.8467 133.34 18.7145C133.34 18.5162 133.406 18.4501 133.604 18.4501C133.538 18.4501 133.736 18.5162 134.331 18.5823C134.926 18.6484 135.521 18.7145 136.248 18.7145C137.306 18.7145 138.429 18.5823 139.619 18.384H139.685C139.884 18.384 139.95 18.4501 139.95 18.6484C139.95 18.7806 139.884 18.8467 139.685 18.9128C139.553 18.9789 139.024 19.045 138.231 19.1111C138.033 19.3755 137.967 20.0364 137.967 21.1601V33.8511C138.033 35.9001 138.033 36.9577 138.033 37.0238ZM137.57 37.0238V21.2923C137.57 20.3669 137.636 19.706 137.768 19.3094L137.306 19.3755C137.041 19.8381 136.843 20.4992 136.843 21.4245V36.6272C136.843 37.6187 137.041 38.3458 137.504 38.6762H137.967C137.702 38.1475 137.57 37.6187 137.57 37.0238Z" fill="#4E2E15"/>
<path d="M164.935 38.8745C164.605 38.8745 164.076 38.9405 163.415 39.0727C162.754 39.2049 162.225 39.2711 161.961 39.2711C161.762 39.2711 161.696 39.205 161.696 39.0067C161.696 38.8745 161.762 38.8083 161.894 38.7423C162.027 38.6762 162.423 38.6101 163.018 38.544C163.084 38.4779 163.15 38.4118 163.15 38.2796C163.15 38.0813 163.018 37.7508 162.82 37.3542C162.291 36.4288 161.101 34.1815 159.052 30.6121H149.468C148.278 32.7273 147.551 34.0492 147.353 34.4458C146.361 36.4288 145.899 37.7508 145.899 38.544V38.6762C146.163 38.6762 146.493 38.7423 146.956 38.8745C147.088 38.8745 147.154 39.0067 147.154 39.1389C147.154 39.3372 147.088 39.4032 146.89 39.4032H146.824C145.238 39.271 144.378 39.1389 144.312 39.1389C144.048 39.1389 143.255 39.205 142.065 39.3372H141.999C141.8 39.3372 141.734 39.271 141.734 39.0727C141.734 38.9405 141.8 38.8745 141.999 38.8084C142.197 38.7423 142.66 38.6762 143.519 38.6101C144.511 37.8169 145.37 36.8254 146.097 35.5034L153.632 22.0193C153.632 21.9532 153.764 21.7549 153.897 21.2922L153.698 20.9618C153.037 19.7059 152.244 19.111 151.319 19.111C151.253 19.111 151.054 19.1771 150.856 19.2432C150.658 19.3093 150.459 19.3754 150.393 19.3754C150.195 19.3754 150.129 19.3093 150.129 19.111C150.129 18.9127 150.459 18.7144 151.12 18.5822C151.583 18.5161 152.046 18.45 152.442 18.45C154.029 18.45 155.351 18.9127 156.54 19.8381C156.607 19.9042 156.673 19.9703 156.673 20.0364L165.596 36.8254C165.993 37.5525 166.389 38.1474 166.852 38.6101C167.116 38.6762 167.315 38.7423 167.579 38.8084C167.645 38.9406 167.711 39.0067 167.711 39.1389C167.711 39.2711 167.645 39.3372 167.447 39.3372C167.182 39.3372 166.786 39.2711 166.191 39.1389C165.662 38.8745 165.266 38.8745 164.935 38.8745ZM154.425 22.0193C153.434 23.6718 151.914 26.2496 149.931 29.6868H158.656L154.425 22.0193ZM152.442 18.8466C153.037 19.1771 153.632 19.7059 154.095 20.5651C154.425 21.0939 154.822 21.9532 155.417 23.0769C156.144 24.3989 157.4 26.5801 159.118 29.6868H159.911L155.483 21.5566C155.02 20.6973 154.624 20.1025 154.293 19.772C153.764 19.1771 153.169 18.8466 152.442 18.8466ZM160.374 30.4138H159.581C160.374 31.868 161.63 34.0493 163.216 36.9576C163.547 37.5525 163.679 38.0152 163.547 38.3457C163.877 38.3457 164.208 38.2796 164.538 38.2796C164.406 37.8169 164.01 36.9576 163.349 35.7678L160.374 30.4138Z" fill="#4E2E15"/>
<path d="M207.965 8.60141C207.502 8.7997 207.04 8.99799 206.577 9.19629C205.652 9.59288 205.057 10.0556 204.792 10.6505C203.603 12.8317 202.149 15.8723 200.562 19.8382C198.976 23.738 197.522 26.9768 196.067 29.4885C195.671 30.2817 194.812 31.3393 193.49 32.7935C191.969 34.512 190.647 35.7018 189.524 36.3628C187.673 37.5526 185.624 38.1475 183.377 38.1475C180.204 38.1475 177.428 37.0238 175.18 34.7104C172.933 32.3969 171.743 29.6869 171.743 26.6463C171.743 23.8041 172.669 21.028 174.519 18.3179C176.634 15.2113 179.278 13.5588 182.451 13.2283L184.17 13.4266C183.641 13.691 182.782 14.0876 181.658 14.5503C179.411 15.1452 177.494 16.8637 175.907 19.706C174.519 22.2177 173.792 24.5972 173.792 26.8446C173.792 29.2242 174.585 31.3393 176.172 33.1901C177.89 35.1731 179.939 36.1645 182.451 36.1645C185.227 36.1645 187.937 34.9087 190.581 32.3308C193.159 29.8852 195.142 26.8446 196.596 23.2092C197.125 21.8872 197.654 20.6314 198.116 19.4416C199.306 16.5333 200.364 13.5588 202.347 10.1878C202.347 10.1217 202.215 10.1217 202.148 10.1217C201.752 10.1217 199.769 10.5183 196.332 11.3115C192.564 12.1707 190.647 12.7656 190.647 13.0961C190.647 13.3605 191.044 13.8893 191.705 14.6164V15.0791C190.647 14.6164 189.854 14.0215 189.193 13.2944C188.664 12.5673 188.334 11.9063 188.334 11.3115C188.334 11.1793 188.466 10.8488 188.466 10.5844C191.441 10.0556 195.473 9.19629 200.496 8.20481C201.421 8.07261 202.743 7.74212 204.462 7.27943C204.594 7.21334 204.859 7.01504 205.255 6.61845C205.586 6.28795 205.784 6.08967 205.982 6.08967C206.313 6.08967 206.775 6.28795 207.304 6.81674C207.899 7.27943 208.23 7.60993 208.23 7.94042C208.23 8.13872 208.163 8.40311 207.965 8.60141ZM211.204 37.6187C212.46 37.6187 213.65 37.156 214.707 36.2967C214.839 36.2306 215.5 35.4374 216.889 33.8511C216.822 34.6443 217.153 35.4375 217.946 36.2967C218.673 37.156 219.466 37.6187 220.326 37.6848C220.854 37.6848 222.044 37.0899 223.763 35.834C225.614 34.446 226.737 33.1901 227.134 32.1325C227.2 31.9342 227.134 31.8681 227.002 31.802C223.432 34.5781 221.185 35.9662 220.458 35.9001C219.599 35.7679 219.268 35.1069 219.334 33.785C219.466 32.0664 220.061 29.8851 220.92 27.3073C221.449 25.8531 221.978 24.399 222.507 22.9448C222.639 22.4821 221.912 21.6228 221.119 21.755C220.524 21.8872 219.995 23.2753 219.532 24.399C219.466 24.4651 219.466 24.4651 219.334 24.4651C219.202 24.3329 218.938 24.2668 218.475 24.0685C218.012 23.8702 217.682 23.8041 217.616 23.8041C215.765 23.8041 213.782 25.2582 211.601 28.1666C209.552 30.8766 208.56 32.9257 208.56 34.5121C208.56 35.2391 208.758 35.9001 209.221 36.5611C209.75 37.2882 210.411 37.6187 211.204 37.6187ZM218.871 25.9853C218.21 28.2327 216.888 30.414 215.038 32.6613C213.253 34.7765 211.997 35.7679 211.138 35.5696C211.072 35.4374 211.006 35.2392 211.006 34.9748C211.006 33.5206 211.799 31.7359 213.385 29.4225C215.104 26.9768 216.624 25.721 218.078 25.721C218.343 25.721 218.541 25.787 218.871 25.9853ZM256.812 42.7083C256.812 41.4524 253.639 40.3287 247.36 39.5355C242.799 38.9407 239.164 38.6102 236.586 38.6102C235.462 38.6102 234.272 38.6763 232.884 38.8085C233.347 37.2882 233.678 35.9662 234.008 34.9086C235 32.0003 235.727 29.8852 236.189 28.7615C236.321 28.2988 236.916 27.0429 237.974 24.9939C238.701 23.4736 239.164 22.2177 239.23 21.2262C239.362 20.1025 239.032 19.8382 237.842 19.5738C237.049 19.4416 236.255 20.7635 235.33 23.4736C234.735 25.5887 234.074 27.6378 233.413 29.6869C233.083 30.4801 232.356 31.4054 231.298 32.3969C230.24 33.3884 229.513 33.9172 228.985 33.8511C228.786 33.7189 228.72 33.5867 228.72 33.4545C228.588 32.7274 228.588 32.0664 228.852 31.4054C229.579 29.1581 230.108 27.3073 230.505 25.9853C230.174 25.3904 229.712 25.06 229.249 25.1261C228.72 25.1261 228.125 26.1836 227.398 28.2327C226.803 30.0835 226.473 31.4715 226.473 32.463C226.473 33.124 226.671 33.8511 227.002 34.7104C227.464 35.7679 228.059 36.3628 228.786 36.4289C229.447 36.495 230.042 36.2967 230.505 35.9001C230.637 35.7679 231.034 35.4374 231.629 34.7104L230.439 39.0728C226.076 39.7338 221.449 41.1219 216.624 43.1049C213.914 44.2286 211.535 45.9471 209.552 48.2606C207.37 50.7062 206.313 53.1518 206.313 55.5975C206.313 55.7958 206.379 56.3246 206.379 57.0517C206.445 57.8449 206.511 58.2414 206.577 58.3736C206.643 58.5719 206.643 58.7703 206.709 58.9685C206.841 59.4312 206.908 59.7617 207.106 60.0261C208.296 63.1327 210.807 64.7852 214.443 64.9835C216.294 65.1157 218.343 64.4547 220.656 63.0667C223.697 61.282 226.208 58.1753 228.191 53.7467C229.315 51.1689 230.703 46.9386 232.356 40.9236C234.603 40.5931 236.388 40.4609 237.776 40.4609C239.693 40.4609 241.147 40.527 242.072 40.6592C246.302 41.188 249.409 41.7829 251.26 42.4439C251.392 42.51 252.053 42.7083 253.441 43.3032C254.102 43.5676 254.631 43.6997 254.961 43.6997C255.292 43.6997 255.622 43.6337 256.019 43.5015C256.548 43.3693 256.812 43.1049 256.812 42.7083ZM229.778 41.3863C227.729 48.9215 225.812 54.1433 224.027 56.9856C221.582 60.8193 218.21 62.8022 213.98 62.8683C211.667 62.9344 210.08 62.0091 209.089 60.1583C208.362 58.9024 208.097 57.1839 208.23 55.1348C208.296 54.4078 208.428 53.6807 208.758 53.0197C209.948 50.4418 212.46 47.9301 216.161 45.6827C217.682 44.7573 219.731 43.8981 222.375 43.1049C224.358 42.51 226.142 42.0473 227.663 41.7168C228.324 41.5846 229.051 41.4524 229.778 41.3863ZM242.403 37.6187C243.658 37.6187 244.848 37.156 245.906 36.2967C246.038 36.2306 246.699 35.4374 248.087 33.8511C248.021 34.6443 248.351 35.4375 249.145 36.2967C249.872 37.156 250.665 37.6187 251.524 37.6848C252.053 37.6848 253.243 37.0899 254.961 35.834C256.812 34.446 257.936 33.1901 258.332 32.1325C258.398 31.9342 258.332 31.8681 258.2 31.802C254.631 34.5781 252.383 35.9662 251.656 35.9001C250.797 35.7679 250.467 35.1069 250.533 33.785C250.665 32.0664 251.26 29.8851 252.185 27.3073C252.714 25.8531 253.243 24.399 253.772 22.9448C253.904 22.4821 253.177 21.6228 252.383 21.755C251.789 21.8872 251.26 23.2753 250.797 24.399C250.731 24.4651 250.731 24.4651 250.599 24.4651C250.467 24.3329 250.202 24.2668 249.739 24.0685C249.277 23.8702 248.946 23.8041 248.88 23.8041C247.029 23.8041 245.047 25.2582 242.865 28.1666C240.816 30.8766 239.891 32.9257 239.891 34.5121C239.891 35.2391 240.089 35.9001 240.552 36.5611C240.948 37.2882 241.609 37.6187 242.403 37.6187ZM250.136 25.9853C249.475 28.2327 248.219 30.414 246.302 32.6613C244.518 34.7765 243.262 35.7679 242.403 35.5696C242.336 35.4374 242.27 35.2392 242.27 34.9748C242.27 33.5206 243.064 31.7359 244.65 29.4225C246.368 26.9768 247.889 25.721 249.343 25.721C249.541 25.721 249.74 25.787 250.136 25.9853ZM212.923 44.4929C211.27 44.2946 209.023 44.493 206.379 42.5761C204.528 40.7253 202.876 38.1475 201.818 36.0323C200.232 32.7935 199.438 29.5546 199.438 26.1836V22.0855C200.166 21.755 201.157 21.2923 202.479 20.6314L211.931 14.352C215.699 11.6419 218.673 8.86579 220.788 5.82526L221.912 6.35406C222.375 6.61845 222.639 6.94894 222.639 7.27943C222.639 7.74212 222.243 8.46921 221.449 9.32849C218.938 12.1707 215.831 14.8808 212.063 17.5247C210.873 18.3179 207.503 20.4992 201.884 24.0685C201.752 24.4651 201.686 24.9278 201.686 25.6548C201.686 26.5802 201.818 27.6378 202.016 28.8276C202.016 29.6207 202.215 30.8766 202.677 32.5291C203.074 33.9833 203.404 34.9747 203.603 35.3713C205.255 38.5441 207.106 40.9236 209.089 42.51C210.279 43.3693 211.535 44.0302 212.923 44.4929Z" fill="url(#paint1_linear_825_2844)"/>
<path d="M11.4541 9.26233C11.4541 7.94035 11.388 7.80816 10.727 7.60986C10.5948 7.60986 10.3304 7.54376 10.1982 7.54376C10.1321 7.54376 10.066 7.54375 10.066 7.47765C10.066 7.41156 10.1321 7.34547 10.3304 7.34547C11.0575 7.34547 12.049 7.41157 12.1151 7.41157C12.1812 7.41157 13.1727 7.34547 13.7015 7.34547C13.8997 7.34547 13.9659 7.34546 13.9659 7.47765C13.9659 7.54375 13.8998 7.54376 13.8337 7.54376C13.7015 7.54376 13.6354 7.54376 13.4371 7.60986C12.9744 7.67596 12.9083 7.94035 12.8422 8.53524C12.8422 9.06402 12.8422 9.52672 12.8422 10.1877V11.9724C12.8422 12.6995 12.8422 12.6994 12.6439 12.8316C11.5863 13.3604 10.1983 13.5587 9.27288 13.5587C8.0831 13.5587 5.76965 13.4265 3.98499 11.8402C2.99351 10.9809 2.06812 9.26233 2.06812 7.27937C2.06812 4.70152 3.32399 2.91686 4.71206 1.99148C6.16623 1.0661 7.75261 1 8.94239 1C9.93387 1 11.0575 1.19829 11.388 1.26439C11.7185 1.33049 12.3134 1.3966 12.71 1.4627C12.8422 1.4627 12.9083 1.52878 12.9083 1.59488C12.9083 1.79318 12.7761 2.25587 12.7761 3.84223C12.7761 4.10663 12.7761 4.17272 12.6439 4.17272C12.5778 4.17272 12.5778 4.10663 12.5117 3.90833C12.5117 3.71004 12.4456 3.24734 12.1812 2.85075C11.7846 2.25587 10.4626 1.52878 8.41356 1.52878C7.42209 1.52878 6.23234 1.59488 4.97647 2.58636C4.05109 3.31345 3.39009 4.76762 3.39009 6.68448C3.39009 8.93184 4.51375 10.5843 5.10863 11.1131C6.36451 12.369 7.81871 12.8316 9.27288 12.8316C9.86777 12.8316 10.6609 12.7655 11.1236 12.5012C11.3219 12.369 11.4541 12.2368 11.4541 11.9063V9.26233Z" fill="#CC6929"/>
<path d="M19.4521 3.31339C19.6504 2.8507 19.7165 2.78461 19.7826 2.78461C19.9148 2.78461 19.9809 2.98289 20.1131 3.31339C20.3775 3.90828 22.6249 9.52666 23.4842 11.5757C24.013 12.7655 24.4096 12.9638 24.674 13.096C24.8722 13.1621 25.0705 13.1621 25.2027 13.1621C25.2688 13.1621 25.401 13.2282 25.401 13.2943C25.401 13.3604 25.2688 13.4265 25.0705 13.4265C24.8722 13.4265 23.8147 13.4265 22.8232 13.3604C22.5588 13.3604 22.2944 13.3604 22.2944 13.2943C22.2944 13.2282 22.3605 13.2282 22.3605 13.2282C22.4266 13.2282 22.5588 13.096 22.4927 12.8316L21.2368 9.72496C21.2368 9.65886 21.1707 9.65886 21.1046 9.65886H17.9319C17.8658 9.65886 17.7997 9.65884 17.7997 9.79104L17.0065 11.9723C16.8743 12.3028 16.8082 12.6333 16.8082 12.8977C16.8082 13.1621 17.0726 13.2943 17.2709 13.2943H17.4031C17.5353 13.2943 17.5353 13.3604 17.5353 13.4265C17.5353 13.4926 17.4692 13.5587 17.337 13.5587C17.0065 13.5587 16.2133 13.4926 16.0811 13.4926C15.9489 13.4926 15.2218 13.5587 14.627 13.5587C14.4287 13.5587 14.3625 13.4926 14.3625 13.4265C14.3625 13.3604 14.4287 13.2943 14.4948 13.2943C14.627 13.2943 14.8253 13.2943 14.8914 13.2943C15.5524 13.2282 15.8167 12.7655 16.0811 12.0384L19.4521 3.31339ZM20.9724 8.99787C21.0385 8.99787 21.0385 8.93177 21.0385 8.93177L19.6504 5.23024C19.5843 5.03195 19.5183 5.03195 19.3861 5.23024L18.0641 8.93177C18.0641 8.99787 18.0641 8.99787 18.1302 8.99787H20.9724Z" fill="#CC6929"/>
<path d="M28.5738 9.46062C28.5738 11.4436 28.5738 12.3029 28.8382 12.5012C29.0365 12.6995 29.6314 12.8317 30.689 12.8317C31.416 12.8317 32.077 12.8317 32.4075 12.4351C32.6058 12.2368 32.6719 11.9063 32.738 11.6419C32.738 11.5758 32.8041 11.4436 32.8702 11.4436C32.9363 11.4436 32.9363 11.5097 32.9363 11.6419C32.9363 11.7741 32.8702 12.6334 32.738 13.03C32.6719 13.3605 32.6058 13.4265 31.8126 13.4265C30.8212 13.4265 30.028 13.4266 29.367 13.3605C28.706 13.3605 28.2433 13.3605 27.8467 13.3605C27.7806 13.3605 27.5162 13.3605 27.2518 13.3605C26.9874 13.3605 26.657 13.4265 26.4587 13.4265C26.3265 13.4265 26.2603 13.3605 26.2603 13.2944C26.2603 13.2283 26.2603 13.1622 26.3925 13.1622C26.5247 13.1622 26.723 13.1621 26.8552 13.096C27.1196 13.0299 27.1857 12.7656 27.2518 12.369C27.3179 11.8402 27.3179 10.7165 27.3179 9.39454V7.01499C27.3179 4.89983 27.3179 4.50325 27.3179 4.10665C27.3179 3.64396 27.1857 3.44566 26.723 3.37957C26.5908 3.37957 26.3925 3.31346 26.2603 3.31346C26.1942 3.31346 26.1282 3.24736 26.1282 3.18126C26.1282 3.11516 26.1943 3.04907 26.3265 3.04907C26.9874 3.04907 27.8467 3.11517 27.9128 3.11517C27.9789 3.11517 29.0365 3.04907 29.4331 3.04907C29.5653 3.04907 29.6314 3.11516 29.6314 3.18126C29.6314 3.24736 29.5653 3.31346 29.4992 3.31346C29.4331 3.31346 29.1687 3.31346 29.0365 3.31346C28.6399 3.37956 28.5077 3.57787 28.5077 4.10665C28.5077 4.56934 28.5077 4.89983 28.5077 7.01499V9.46062H28.5738Z" fill="#CC6929"/>
<path d="M35.8445 7.01499C35.8445 4.89983 35.8445 4.50325 35.7784 4.10666C35.7123 3.64397 35.6462 3.44567 35.1835 3.37957C35.0513 3.37957 34.853 3.31346 34.7208 3.31346C34.6547 3.31346 34.5886 3.24736 34.5886 3.18126C34.5886 3.11516 34.6547 3.04907 34.7869 3.04907C35.4479 3.04907 36.3072 3.11518 36.4394 3.11518C36.5055 3.11518 39.4799 3.11518 39.8104 3.11518C40.0748 3.11518 40.3392 3.04907 40.4714 3.04907C40.5375 3.04907 40.6036 2.98297 40.6697 2.98297C40.7358 2.98297 40.7358 3.04908 40.7358 3.11518C40.7358 3.18128 40.6697 3.37957 40.6036 3.77616C40.6036 3.90836 40.5375 4.50324 40.5375 4.70154C40.5375 4.76764 40.4714 4.83372 40.4053 4.83372C40.3392 4.83372 40.2731 4.76763 40.2731 4.63544C40.2731 4.56934 40.2731 4.30494 40.207 4.17274C40.1409 3.97444 39.9426 3.84226 39.2155 3.77616C38.9511 3.77616 37.3647 3.71006 37.1664 3.71006C37.1003 3.71006 37.1004 3.77615 37.1004 3.84224V7.54377C37.1004 7.60987 37.1003 7.67598 37.1664 7.67598C37.3647 7.67598 39.2155 7.67598 39.546 7.67598C39.8765 7.60988 40.0748 7.60987 40.207 7.47767C40.2731 7.41157 40.3392 7.27938 40.4053 7.27938C40.4714 7.27938 40.4714 7.27939 40.4714 7.41159C40.4714 7.47768 40.4053 7.74206 40.3392 8.13865C40.2731 8.40305 40.2731 8.93185 40.2731 8.99795C40.2731 9.13015 40.207 9.26234 40.1409 9.26234C40.0748 9.26234 40.0748 9.19623 40.0748 9.13013C40.0748 8.99794 40.0748 8.86575 40.0087 8.66745C39.9426 8.46916 39.8104 8.33696 39.2816 8.27086C38.885 8.20476 37.3647 8.20476 37.1664 8.20476C37.1003 8.20476 37.1004 8.27086 37.1004 8.27086V9.39454C37.1004 9.85723 37.1004 11.4436 37.1004 11.708C37.1665 12.6334 37.3648 12.7656 38.7528 12.7656C39.1494 12.7656 39.8104 12.7656 40.1409 12.6334C40.5375 12.5012 40.6697 12.2368 40.8019 11.708C40.8019 11.5758 40.868 11.5097 40.9341 11.5097C41.0002 11.5097 41.0002 11.6419 41.0002 11.708C41.0002 11.7741 40.868 12.6995 40.8019 13.03C40.7358 13.3605 40.5375 13.3605 40.0087 13.3605C38.9511 13.3605 38.1579 13.3605 37.5631 13.2944C36.9682 13.2944 36.5716 13.2944 36.3733 13.2944C36.3733 13.2944 36.0428 13.2944 35.7784 13.2944C35.514 13.2944 35.1835 13.3605 34.9852 13.3605C34.853 13.3605 34.7869 13.2944 34.7869 13.2283C34.7869 13.1622 34.7869 13.096 34.9191 13.096C35.0513 13.096 35.2496 13.03 35.3818 13.03C35.6462 12.9639 35.7123 12.6995 35.7784 12.3029C35.8445 11.7741 35.8445 10.6504 35.8445 9.32844V7.01499Z" fill="#CC6929"/>
<path d="M44.6356 7.01499C44.6356 4.89983 44.6356 4.50325 44.6356 4.10665C44.6356 3.64396 44.5034 3.44566 44.0407 3.37957C43.9085 3.37957 43.7102 3.31346 43.578 3.31346C43.5119 3.31346 43.4458 3.24736 43.4458 3.18126C43.4458 3.11516 43.5119 3.04907 43.6441 3.04907C44.3051 3.04907 45.2305 3.11517 45.2966 3.11517C45.4288 3.11517 46.6185 3.04907 47.0812 3.04907C48.0066 3.04907 48.9981 3.11517 49.7252 3.64396C50.0557 3.90835 50.7166 4.56933 50.7166 5.49471C50.7166 6.48619 50.3201 7.47767 48.9981 8.60135C50.1218 10.0555 51.1133 11.2453 51.9065 12.1046C52.6335 12.8978 53.0962 13.03 53.4928 13.03C53.7572 13.0961 53.8894 13.096 53.9555 13.096C54.0216 13.096 54.0877 13.1622 54.0877 13.2283C54.0877 13.2944 54.0216 13.3605 53.7572 13.3605H52.8979C52.1047 13.3605 51.7742 13.2943 51.3776 13.096C50.7827 12.7656 50.254 12.1046 49.4608 11.1131C48.8659 10.386 48.271 9.52672 47.9405 9.13013C47.8744 9.06403 47.8744 9.06405 47.7422 9.06405H45.9576C45.8915 9.06405 45.8915 9.06404 45.8915 9.19623V9.52673C45.8915 10.8487 45.8915 11.9063 45.9576 12.4351C46.0237 12.8317 46.0898 13.0961 46.4864 13.1621C46.6847 13.1621 46.949 13.2283 47.0812 13.2283C47.1473 13.2283 47.2134 13.2944 47.2134 13.3605C47.2134 13.4266 47.1473 13.4926 47.0151 13.4926C46.222 13.4926 45.3627 13.4265 45.2966 13.4265C45.2966 13.4265 44.3051 13.4926 43.9085 13.4926C43.7763 13.4926 43.7102 13.4266 43.7102 13.3605C43.7102 13.2944 43.7102 13.2283 43.8424 13.2283C43.9746 13.2283 44.1729 13.2282 44.3051 13.1621C44.5695 13.0961 44.6356 12.8317 44.7017 12.4351C44.7678 11.9063 44.7678 10.7826 44.7678 9.46062V7.01499H44.6356ZM45.8915 8.13865C45.8915 8.20475 45.9576 8.27086 45.9576 8.33696C46.1559 8.46916 46.883 8.53525 47.4778 8.53525C47.8083 8.53525 48.2049 8.53525 48.5354 8.27086C48.9981 7.94036 49.3947 7.21328 49.3947 6.2218C49.3947 4.50323 48.4693 3.57785 46.9491 3.57785C46.5525 3.57785 46.0898 3.64396 45.9576 3.64396C45.8915 3.64396 45.8254 3.71006 45.8254 3.77616V8.13865H45.8915Z" fill="#CC6929"/>
<path d="M56.6655 9.39454C56.6655 10.7165 56.6656 11.7741 56.7317 12.369C56.7978 12.7656 56.7978 13.0299 57.2604 13.096C57.4587 13.096 57.7892 13.1622 57.9214 13.1622C57.9875 13.1622 58.0536 13.2283 58.0536 13.2944C58.0536 13.3605 57.9875 13.4265 57.8553 13.4265C57.0622 13.4265 56.1368 13.3605 56.0707 13.3605C56.0046 13.3605 55.0792 13.4265 54.6826 13.4265C54.5504 13.4265 54.4843 13.3605 54.4843 13.2944C54.4843 13.2283 54.4843 13.1622 54.6165 13.1622C54.7487 13.1622 54.947 13.1621 55.0792 13.096C55.3436 13.0299 55.4097 12.7656 55.4758 12.369C55.5419 11.8402 55.5419 10.7165 55.5419 9.39454V7.01499C55.5419 4.89983 55.5419 4.50325 55.4758 4.10665C55.4758 3.64396 55.3436 3.44566 55.0131 3.37957C54.8809 3.37957 54.6826 3.31346 54.5504 3.31346C54.4843 3.31346 54.4182 3.24736 54.4182 3.18126C54.4182 3.11516 54.4843 3.04907 54.6165 3.04907C55.0792 3.04907 55.9385 3.11517 56.0707 3.11517C56.1368 3.11517 57.0621 3.04907 57.4587 3.04907C57.5909 3.04907 57.657 3.11516 57.657 3.18126C57.657 3.24736 57.591 3.31346 57.5249 3.31346C57.4588 3.31346 57.3266 3.31347 57.1944 3.37957C56.7978 3.44566 56.7317 3.64396 56.7317 4.10665C56.7317 4.56934 56.7317 4.89983 56.7317 7.01499V9.39454H56.6655Z" fill="#CC6929"/>
<defs>
<linearGradient id="paint0_linear_825_2844" x1="196.345" y1="13.8734" x2="263.075" y2="68.9928" gradientUnits="userSpaceOnUse">
<stop stop-color="#CC6C2A"/>
<stop offset="1" stop-color="#9E5525"/>
</linearGradient>
<linearGradient id="paint1_linear_825_2844" x1="196.345" y1="13.8734" x2="263.075" y2="68.9928" gradientUnits="userSpaceOnUse">
<stop stop-color="#CC6C2A"/>
<stop offset="1" stop-color="#9E5525"/>
</linearGradient>
</defs>
</svg>
