<svg width="26" height="26" viewBox="0 0 26 26" fill="none" xmlns="http://www.w3.org/2000/svg">
<path d="M12.987 0C5.811 0 0 5.824 0 13C0 20.176 5.811 26 12.987 26C20.176 26 26 20.176 26 13C26 5.824 20.176 0 12.987 0ZM8.45 7.8C9.529 7.8 10.4 8.671 10.4 9.75C10.4 10.829 9.529 11.7 8.45 11.7C7.371 11.7 6.5 10.829 6.5 9.75C6.5 8.671 7.371 7.8 8.45 7.8ZM13 20.8C10.9187 20.8 9.05543 19.736 7.77909 18.0491C6.95544 16.9604 7.90974 15.6 9.27485 15.6H16.7251C18.0903 15.6 19.0446 16.9604 18.2209 18.0491C16.9446 19.736 15.0812 20.8 13 20.8ZM17.55 11.7C16.471 11.7 15.6 10.829 15.6 9.75C15.6 8.671 16.471 7.8 17.55 7.8C18.629 7.8 19.5 8.671 19.5 9.75C19.5 10.829 18.629 11.7 17.55 11.7Z" fill="#FFFAE4"/>
</svg>
