<svg width="16" height="25" viewBox="0 0 16 25" fill="none" xmlns="http://www.w3.org/2000/svg">
<path fill-rule="evenodd" clip-rule="evenodd" d="M8 3C5.23858 3 3 5.23858 3 8C3 10.7614 5.23858 13 8 13C10.7614 13 13 10.7614 13 8C13 5.23858 10.7614 3 8 3ZM0 8C0 3.58172 3.58172 0 8 0C12.4183 0 16 3.58172 16 8C16 11.9056 13.2013 15.1575 9.5 15.8596V18.5H12C12.8284 18.5 13.5 19.1716 13.5 20C13.5 20.8284 12.8284 21.5 12 21.5H9.5V23.5C9.5 24.3284 8.82843 25 8 25C7.17157 25 6.5 24.3284 6.5 23.5V21.5H4C3.17157 21.5 2.5 20.8284 2.5 20C2.5 19.1716 3.17157 18.5 4 18.5H6.5V15.8596C2.79871 15.1575 0 11.9056 0 8Z" fill="#C7473C"/>
</svg>
