<svg width="21" height="10" viewBox="0 0 21 10" fill="none" xmlns="http://www.w3.org/2000/svg">
<path id="Vector" d="M11.1205 3.33333C10.3377 1.39167 8.21864 0 5.72727 0C2.56773 0 0 2.24167 0 5C0 7.75833 2.56773 10 5.72727 10C8.21864 10 10.3377 8.60833 11.1205 6.66667H15.2727V9C15.2727 9.55229 15.7204 10 16.2727 10H18.0909C18.6432 10 19.0909 9.55229 19.0909 9V6.66667H20C20.5523 6.66667 21 6.21895 21 5.66667V4.33333C21 3.78105 20.5523 3.33333 20 3.33333H11.1205ZM5.72727 6.66667C4.67727 6.66667 3.81818 5.91667 3.81818 5C3.81818 4.08333 4.67727 3.33333 5.72727 3.33333C6.77727 3.33333 7.63636 4.08333 7.63636 5C7.63636 5.91667 6.77727 6.66667 5.72727 6.66667Z" fill="#4E2E15"/>
</svg>
