<svg width="22" height="22" viewBox="0 0 22 22" fill="none" xmlns="http://www.w3.org/2000/svg">
<path fill-rule="evenodd" clip-rule="evenodd" d="M20.2886 9.8995C19.4601 9.8995 18.7886 9.22792 18.7886 8.3995V5.1213L14.6182 9.29167C16.739 12.4054 16.4185 16.6838 13.6569 19.4455C10.5327 22.5697 5.46734 22.5697 2.34315 19.4455C-0.781048 16.3213 -0.781049 11.256 2.34315 8.1318C5.10479 5.37015 9.38319 5.04967 12.4969 7.17037L16.6672 3.00008L13.389 3.00008C12.5606 3.00008 11.889 2.32851 11.889 1.50008C11.889 0.671653 12.5606 8.0052e-05 13.389 7.99822e-05L20.273 7.94019e-05C20.2782 2.65099e-05 20.2834 0 20.2886 0C21.117 0 21.7886 0.671572 21.7886 1.5V8.3995C21.7886 9.22792 21.117 9.8995 20.2886 9.8995ZM11.5355 17.3242C9.58291 19.2768 6.41709 19.2768 4.46447 17.3242C2.51184 15.3716 2.51184 12.2057 4.46447 10.2531C6.41709 8.3005 9.58291 8.30049 11.5355 10.2531C13.4882 12.2057 13.4882 15.3716 11.5355 17.3242Z" fill="#0083FF"/>
</svg>
